{
	"asset":{
		"generator":"Khronos glTF Blender I/O v4.3.47",
		"version":"2.0"
	},
	"extensionsUsed":[
		"KHR_materials_clearcoat"
	],
	"scene":0,
	"scenes":[
		{
			"name":"Scene",
			"nodes":[
				7,
				10,
				16,
				29,
				40
			]
		}
	],
	"nodes":[
		{
			"mesh":0,
			"name":"SM_Coffe_Table_02_LP_M_Grid_0"
		},
		{
			"mesh":1,
			"name":"SM_Coffe_Table_02_LP_M_Side_Table_0"
		},
		{
			"mesh":2,
			"name":"SM_Coffe_Table_02_LP_M_Slider_0"
		},
		{
			"mesh":3,
			"name":"SM_Coffe_Table_02_LP_M_Vienna_Straw_0"
		},
		{
			"children":[
				0,
				1,
				2,
				3
			],
			"name":"SM_Coffe_Table_02_LP",
			"rotation":[
				-0.70710688829422,
				0,
				0,
				0.7071066498756409
			],
			"scale":[
				56.808197021484375,
				56.80819320678711,
				109.80783081054688
			]
		},
		{
			"children":[
				4
			],
			"name":"RootNode"
		},
		{
			"children":[
				5
			],
			"name":"3366a78cde444590a1e722cb888e192d.fbx",
			"rotation":[
				0.70710688829422,
				0,
				0,
				0.7071066498756409
			],
			"scale":[
				0.009999999776482582,
				0.009999999776482582,
				0.009999999776482582
			]
		},
		{
			"children":[
				6
			],
			"name":"Sketchfab_model",
			"rotation":[
				-0.70710688829422,
				0,
				0,
				0.7071066498756409
			],
			"scale":[
				1.4285714626312256,
				1.4285715818405151,
				1.4285715818405151
			]
		},
		{
			"mesh":4,
			"name":"Object_2",
			"scale":[
				0.26064708828926086,
				0.26064708828926086,
				0.26064708828926086
			]
		},
		{
			"children":[
				8
			],
			"name":"f001bf178dcc4c548c7bd55d6a3b0b01.obj.cleaner"
		},
		{
			"children":[
				9
			],
			"name":"Sketchfab_model.001",
			"rotation":[
				-0.7071069478988647,
				0,
				0,
				0.7071066498756409
			],
			"scale":[
				0.16423261165618896,
				0.16423262655735016,
				0.16423262655735016
			],
			"translation":[
				0,
				0.6431498527526855,
				0.17313885688781738
			]
		},
		{
			"mesh":5,
			"name":"Material1",
			"translation":[
				2.1522073438973166e-05,
				5.790674913441762e-05,
				-5.435908678919077e-05
			]
		},
		{
			"children":[
				11
			],
			"name":"Jhjkkjhk777",
			"translation":[
				2.1522073438973166e-05,
				5.790674913441762e-05,
				-5.435908678919077e-05
			]
		},
		{
			"mesh":6,
			"name":"Material1.001",
			"translation":[
				3.703114634845406e-05,
				5.907735612709075e-05,
				-6.506775389425457e-05
			]
		},
		{
			"children":[
				13
			],
			"name":"Jjjjhhh.1",
			"translation":[
				3.703114634845406e-05,
				77.25836181640625,
				8.37923812866211
			]
		},
		{
			"children":[
				12,
				14
			],
			"name":"Collada visual scene group",
			"rotation":[
				0.70710688829422,
				0,
				0,
				0.7071066498756409
			],
			"translation":[
				-2.4254301024484448e-05,
				2.3475386115023866e-05,
				2.2150081804284127e-06
			]
		},
		{
			"children":[
				15
			],
			"name":"Sketchfab_model.002",
			"rotation":[
				-0.6699423789978027,
				0.22622379660606384,
				0.22622381150722504,
				0.6699423789978027
			],
			"scale":[
				0.000370580266462639,
				0.00037058020825497806,
				0.0003705801791511476
			],
			"translation":[
				-0.10451356321573257,
				0.7164692282676697,
				0.2728114724159241
			]
		},
		{
			"mesh":7,
			"name":"Beak__0",
			"translation":[
				3.3717951737344265e-06,
				4.943380190525204e-06,
				5.8331152104074135e-05
			]
		},
		{
			"children":[
				17
			],
			"name":"Beak",
			"scale":[
				0.0010000001639127731,
				0.0010000000474974513,
				0.0010000000474974513
			]
		},
		{
			"mesh":8,
			"name":"Body__0",
			"translation":[
				3.3717951737344265e-06,
				4.943380190525204e-06,
				5.8331152104074135e-05
			]
		},
		{
			"children":[
				19
			],
			"name":"Body",
			"scale":[
				0.0010000001639127731,
				0.0010000000474974513,
				0.0010000000474974513
			]
		},
		{
			"mesh":9,
			"name":"Head__0",
			"translation":[
				3.3717951737344265e-06,
				4.943380190525204e-06,
				5.8331152104074135e-05
			]
		},
		{
			"children":[
				21
			],
			"name":"Head",
			"scale":[
				0.0010000001639127731,
				0.0010000000474974513,
				0.0010000000474974513
			]
		},
		{
			"mesh":10,
			"name":"WheelFront__0",
			"translation":[
				3.3717951737344265e-06,
				4.943380190525204e-06,
				5.8331152104074135e-05
			]
		},
		{
			"children":[
				23
			],
			"name":"WheelFront",
			"scale":[
				0.0010000001639127731,
				0.0010000000474974513,
				0.0010000000474974513
			]
		},
		{
			"mesh":11,
			"name":"WheelRear__0",
			"translation":[
				3.3717951737344265e-06,
				4.943380190525204e-06,
				5.8331152104074135e-05
			]
		},
		{
			"children":[
				25
			],
			"name":"WheelRear",
			"scale":[
				0.0010000001639127731,
				0.0010000000474974513,
				0.0010000000474974513
			]
		},
		{
			"children":[
				18,
				20,
				22,
				24,
				26
			],
			"name":"RootNode.001"
		},
		{
			"children":[
				27
			],
			"name":"09d1cb5d8b864a57ab3284aab857cb06.fbx",
			"rotation":[
				1,
				0,
				0,
				4.440892098500626e-16
			]
		},
		{
			"children":[
				28
			],
			"name":"Sketchfab_model.003",
			"rotation":[
				0.27670979499816895,
				0.6507163047790527,
				-0.6507163643836975,
				0.27670982480049133
			],
			"translation":[
				0.12337450683116913,
				0.6481969952583313,
				0.22576263546943665
			]
		},
		{
			"mesh":12,
			"name":"Object_6"
		},
		{
			"children":[
				30
			],
			"name":"hjul_3",
			"rotation":[
				0.70710688829422,
				0,
				0,
				0.7071066498756409
			]
		},
		{
			"mesh":13,
			"name":"Object_4"
		},
		{
			"children":[
				32
			],
			"name":"hjulaxel_2",
			"rotation":[
				0.70710688829422,
				0,
				0,
				0.7071066498756409
			]
		},
		{
			"mesh":14,
			"name":"Object_8"
		},
		{
			"children":[
				34
			],
			"name":"huvud_4",
			"rotation":[
				0.70710688829422,
				0,
				0,
				0.7071066498756409
			]
		},
		{
			"mesh":15,
			"name":"Object_10"
		},
		{
			"children":[
				36
			],
			"name":"kropp_5",
			"rotation":[
				0.70710688829422,
				0,
				0,
				0.7071066498756409
			]
		},
		{
			"children":[
				31,
				33,
				35,
				37
			],
			"name":"GLTF_SceneRootNode",
			"rotation":[
				0.70710688829422,
				0,
				0,
				0.7071066498756409
			]
		},
		{
			"children":[
				38
			],
			"name":"root"
		},
		{
			"children":[
				39
			],
			"name":"Sketchfab_model.004",
			"rotation":[
				-0.2867976427078247,
				0.6463335752487183,
				0.6463336944580078,
				0.2867976725101471
			],
			"scale":[
				0.06556271016597748,
				0.06556270271539688,
				0.06556270271539688
			],
			"translation":[
				0,
				0.6469260454177856,
				0.2868225574493408
			]
		}
	],
	"materials":[
		{
			"alphaCutoff":0.5550057888031006,
			"alphaMode":"MASK",
			"doubleSided":true,
			"name":"M_Grid",
			"pbrMetallicRoughness":{
				"baseColorTexture":{
					"index":0
				},
				"metallicFactor":0,
				"roughnessFactor":0.9989943504333496
			}
		},
		{
			"doubleSided":true,
			"name":"M_Side_Table",
			"normalTexture":{
				"index":1,
				"scale":0.792132556438446
			},
			"pbrMetallicRoughness":{
				"baseColorTexture":{
					"index":2
				},
				"metallicFactor":0,
				"metallicRoughnessTexture":{
					"index":3
				}
			}
		},
		{
			"doubleSided":true,
			"name":"M_Slider",
			"pbrMetallicRoughness":{
				"baseColorFactor":[
					0.025351300835609436,
					0.025351300835609436,
					0.025351300835609436,
					1
				],
				"metallicFactor":0,
				"roughnessFactor":0.9956218600273132
			}
		},
		{
			"alphaCutoff":0.6644489169120789,
			"alphaMode":"MASK",
			"doubleSided":true,
			"name":"M_Vienna_Straw",
			"pbrMetallicRoughness":{
				"baseColorFactor":[
					0.5428454875946045,
					0.5428454875946045,
					0.5428454875946045,
					1
				],
				"baseColorTexture":{
					"index":4
				},
				"metallicFactor":0,
				"roughnessFactor":0.853797197341919
			}
		},
		{
			"doubleSided":true,
			"name":"Material.001",
			"normalTexture":{
				"index":5
			},
			"pbrMetallicRoughness":{
				"baseColorTexture":{
					"index":6
				},
				"metallicRoughnessTexture":{
					"index":7
				},
				"roughnessFactor":0.47999998927116394
			}
		},
		{
			"doubleSided":true,
			"name":"material",
			"normalTexture":{
				"index":8
			},
			"pbrMetallicRoughness":{
				"baseColorTexture":{
					"index":9
				},
				"metallicRoughnessTexture":{
					"index":10
				}
			}
		},
		{
			"doubleSided":true,
			"name":"Mat.1",
			"normalTexture":{
				"index":11
			},
			"pbrMetallicRoughness":{
				"baseColorTexture":{
					"index":12
				},
				"metallicRoughnessTexture":{
					"index":13
				}
			}
		},
		{
			"doubleSided":true,
			"name":"Scene_-_Root",
			"normalTexture":{
				"index":14
			},
			"occlusionTexture":{
				"index":15
			},
			"pbrMetallicRoughness":{
				"baseColorTexture":{
					"index":16
				},
				"metallicRoughnessTexture":{
					"index":15
				}
			}
		},
		{
			"doubleSided":true,
			"name":"Default_OBJ.001",
			"pbrMetallicRoughness":{
				"baseColorFactor":[
					0.006760159973055124,
					0.006760159973055124,
					0.006760159973055124,
					1
				],
				"metallicFactor":0.05454549938440323,
				"roughnessFactor":0.21818199753761292
			}
		},
		{
			"doubleSided":true,
			"name":"Default_OBJ",
			"pbrMetallicRoughness":{
				"baseColorFactor":[
					0.800000011920929,
					0.800000011920929,
					0.800000011920929,
					1
				],
				"metallicFactor":0.9772729873657227,
				"roughnessFactor":0.022727299481630325
			}
		},
		{
			"doubleSided":true,
			"name":"Default_OBJ.002",
			"pbrMetallicRoughness":{
				"baseColorFactor":[
					0.9136850237846375,
					0.004334529861807823,
					0.004763740114867687,
					1
				],
				"metallicFactor":0,
				"roughnessFactor":0.15000000596046448
			}
		},
		{
			"doubleSided":true,
			"extensions":{
				"KHR_materials_clearcoat":{
					"clearcoatFactor":1,
					"clearcoatRoughnessFactor":0.1369500756263733,
					"clearcoatTexture":{
						"index":17,
						"texCoord":1
					}
				}
			},
			"name":"Default_OBJ.003",
			"pbrMetallicRoughness":{
				"baseColorTexture":{
					"index":18
				},
				"metallicFactor":0,
				"roughnessFactor":0.5
			}
		}
	],
	"meshes":[
		{
			"name":"SM_Coffe_Table_02_LP_M_Grid_0",
			"primitives":[
				{
					"attributes":{
						"POSITION":0,
						"NORMAL":1,
						"TEXCOORD_0":2
					},
					"indices":3,
					"material":0
				}
			]
		},
		{
			"name":"SM_Coffe_Table_02_LP_M_Side_Table_0",
			"primitives":[
				{
					"attributes":{
						"POSITION":4,
						"NORMAL":5,
						"TEXCOORD_0":6,
						"TEXCOORD_1":7,
						"TEXCOORD_2":8
					},
					"indices":9,
					"material":1
				}
			]
		},
		{
			"name":"SM_Coffe_Table_02_LP_M_Slider_0",
			"primitives":[
				{
					"attributes":{
						"POSITION":10,
						"NORMAL":11,
						"TEXCOORD_0":12
					},
					"indices":13,
					"material":2
				}
			]
		},
		{
			"name":"SM_Coffe_Table_02_LP_M_Vienna_Straw_0",
			"primitives":[
				{
					"attributes":{
						"POSITION":14,
						"NORMAL":15,
						"TEXCOORD_0":16
					},
					"indices":17,
					"material":3
				}
			]
		},
		{
			"name":"Object_0",
			"primitives":[
				{
					"attributes":{
						"POSITION":18,
						"NORMAL":19,
						"TEXCOORD_0":20
					},
					"indices":21,
					"material":4
				}
			]
		},
		{
			"name":"Material1",
			"primitives":[
				{
					"attributes":{
						"POSITION":22,
						"NORMAL":23,
						"TEXCOORD_0":24
					},
					"indices":25,
					"material":5
				}
			]
		},
		{
			"name":"Material1.001",
			"primitives":[
				{
					"attributes":{
						"POSITION":26,
						"NORMAL":27,
						"TEXCOORD_0":28
					},
					"indices":29,
					"material":6
				}
			]
		},
		{
			"name":"Beak__0",
			"primitives":[
				{
					"attributes":{
						"POSITION":30,
						"NORMAL":31,
						"TEXCOORD_0":32
					},
					"indices":33,
					"material":7
				}
			]
		},
		{
			"name":"Body__0",
			"primitives":[
				{
					"attributes":{
						"POSITION":34,
						"NORMAL":35,
						"TEXCOORD_0":36
					},
					"indices":37,
					"material":7
				}
			]
		},
		{
			"name":"Head__0",
			"primitives":[
				{
					"attributes":{
						"POSITION":38,
						"NORMAL":39,
						"TEXCOORD_0":40
					},
					"indices":41,
					"material":7
				}
			]
		},
		{
			"name":"WheelFront__0",
			"primitives":[
				{
					"attributes":{
						"POSITION":42,
						"NORMAL":43,
						"TEXCOORD_0":44
					},
					"indices":45,
					"material":7
				}
			]
		},
		{
			"name":"WheelRear__0",
			"primitives":[
				{
					"attributes":{
						"POSITION":46,
						"NORMAL":47,
						"TEXCOORD_0":48
					},
					"indices":49,
					"material":7
				}
			]
		},
		{
			"name":"Object_1",
			"primitives":[
				{
					"attributes":{
						"POSITION":50,
						"NORMAL":51,
						"TEXCOORD_0":52
					},
					"indices":53,
					"material":8
				}
			]
		},
		{
			"name":"Object_0.001",
			"primitives":[
				{
					"attributes":{
						"POSITION":54,
						"NORMAL":55,
						"TEXCOORD_0":56
					},
					"indices":57,
					"material":9
				}
			]
		},
		{
			"name":"Object_2",
			"primitives":[
				{
					"attributes":{
						"POSITION":58,
						"NORMAL":59,
						"TEXCOORD_0":60
					},
					"indices":61,
					"material":10
				}
			]
		},
		{
			"name":"Object_3",
			"primitives":[
				{
					"attributes":{
						"POSITION":62,
						"NORMAL":63,
						"TEXCOORD_0":64,
						"TEXCOORD_1":65
					},
					"indices":66,
					"material":11
				}
			]
		}
	],
	"textures":[
		{
			"sampler":0,
			"source":0
		},
		{
			"sampler":0,
			"source":1
		},
		{
			"sampler":0,
			"source":2
		},
		{
			"sampler":0,
			"source":3
		},
		{
			"sampler":0,
			"source":4
		},
		{
			"sampler":0,
			"source":5
		},
		{
			"sampler":0,
			"source":6
		},
		{
			"sampler":0,
			"source":7
		},
		{
			"sampler":0,
			"source":8
		},
		{
			"sampler":0,
			"source":9
		},
		{
			"sampler":0,
			"source":10
		},
		{
			"sampler":0,
			"source":11
		},
		{
			"sampler":0,
			"source":12
		},
		{
			"sampler":0,
			"source":13
		},
		{
			"sampler":0,
			"source":14
		},
		{
			"sampler":0,
			"source":15
		},
		{
			"sampler":0,
			"source":16
		},
		{
			"sampler":0,
			"source":17
		},
		{
			"sampler":0,
			"source":18
		}
	],
	"images":[
		{
			"mimeType":"image/png",
			"name":"M_Grid_baseColor",
			"uri":"M_Grid_baseColor.png"
		},
		{
			"mimeType":"image/png",
			"name":"M_Side_Table_normal",
			"uri":"M_Side_Table_normal.png"
		},
		{
			"mimeType":"image/png",
			"name":"M_Side_Table_baseColor",
			"uri":"M_Side_Table_baseColor.png"
		},
		{
			"mimeType":"image/png",
			"name":"M_Side_Table_metallicRoughness",
			"uri":"M_Side_Table_metallicRoughness.png"
		},
		{
			"mimeType":"image/png",
			"name":"M_Vienna_Straw_baseColor",
			"uri":"M_Vienna_Straw_baseColor.png"
		},
		{
			"mimeType":"image/jpeg",
			"name":"Material_normal",
			"uri":"Material_normal.jpg"
		},
		{
			"mimeType":"image/jpeg",
			"name":"Material_baseColor",
			"uri":"Material_baseColor.jpg"
		},
		{
			"mimeType":"image/png",
			"name":"Material_metallicRoughness",
			"uri":"Material_metallicRoughness.png"
		},
		{
			"mimeType":"image/png",
			"name":"material_normal",
			"uri":"material_normal.png"
		},
		{
			"mimeType":"image/png",
			"name":"material_baseColor",
			"uri":"material_baseColor.png"
		},
		{
			"mimeType":"image/png",
			"name":"material_metallicRoughness",
			"uri":"material_metallicRoughness.png"
		},
		{
			"mimeType":"image/png",
			"name":"Mat.1_normal",
			"uri":"Mat_1_normal.png"
		},
		{
			"mimeType":"image/png",
			"name":"Mat.1_baseColor",
			"uri":"Mat_1_baseColor.png"
		},
		{
			"mimeType":"image/png",
			"name":"Mat.1_metallicRoughness",
			"uri":"Mat_1_metallicRoughness.png"
		},
		{
			"mimeType":"image/png",
			"name":"Scene_-_Root_normal",
			"uri":"Scene_-_Root_normal.png"
		},
		{
			"mimeType":"image/png",
			"name":"Scene_-_Root_metallicRoughness",
			"uri":"Scene_-_Root_metallicRoughness.png"
		},
		{
			"mimeType":"image/png",
			"name":"Scene_-_Root_baseColor",
			"uri":"Scene_-_Root_baseColor.png"
		},
		{
			"mimeType":"image/png",
			"name":"Default_OBJ.003_clearcoat",
			"uri":"Default_OBJ_003_clearcoat.png"
		},
		{
			"mimeType":"image/jpeg",
			"name":"Default_OBJ.003_baseColor",
			"uri":"Default_OBJ_003_baseColor.jpg"
		}
	],
	"accessors":[
		{
			"bufferView":0,
			"componentType":5126,
			"count":116,
			"max":[
				1.0205485820770264,
				0.37285315990448,
				0.16476121544837952
			],
			"min":[
				-1.0225576162338257,
				-0.6257466077804565,
				0.16349472105503082
			],
			"type":"VEC3"
		},
		{
			"bufferView":1,
			"componentType":5126,
			"count":116,
			"type":"VEC3"
		},
		{
			"bufferView":2,
			"componentType":5126,
			"count":116,
			"type":"VEC2"
		},
		{
			"bufferView":3,
			"componentType":5123,
			"count":120,
			"type":"SCALAR"
		},
		{
			"bufferView":4,
			"componentType":5126,
			"count":4808,
			"max":[
				1.2323018312454224,
				0.5507526397705078,
				0.4131495952606201
			],
			"min":[
				-1.2343107461929321,
				-0.8094683289527893,
				0.0037066638469696045
			],
			"type":"VEC3"
		},
		{
			"bufferView":5,
			"componentType":5126,
			"count":4808,
			"type":"VEC3"
		},
		{
			"bufferView":6,
			"componentType":5126,
			"count":4808,
			"type":"VEC2"
		},
		{
			"bufferView":7,
			"componentType":5126,
			"count":4808,
			"type":"VEC2"
		},
		{
			"bufferView":8,
			"componentType":5126,
			"count":4808,
			"type":"VEC2"
		},
		{
			"bufferView":9,
			"componentType":5123,
			"count":15450,
			"type":"SCALAR"
		},
		{
			"bufferView":10,
			"componentType":5126,
			"count":864,
			"max":[
				1.1246005296707153,
				0.5067800283432007,
				0.0037066638469696045
			],
			"min":[
				-1.1245955228805542,
				-0.5067756175994873,
				0
			],
			"type":"VEC3"
		},
		{
			"bufferView":11,
			"componentType":5126,
			"count":864,
			"type":"VEC3"
		},
		{
			"bufferView":12,
			"componentType":5126,
			"count":864,
			"type":"VEC2"
		},
		{
			"bufferView":13,
			"componentType":5123,
			"count":2574,
			"type":"SCALAR"
		},
		{
			"bufferView":14,
			"componentType":5126,
			"count":116,
			"max":[
				1.0205485820770264,
				0.37285315990448,
				0.16543881595134735
			],
			"min":[
				-1.0225576162338257,
				-0.6257466077804565,
				0.16417232155799866
			],
			"type":"VEC3"
		},
		{
			"bufferView":15,
			"componentType":5126,
			"count":116,
			"type":"VEC3"
		},
		{
			"bufferView":16,
			"componentType":5126,
			"count":116,
			"type":"VEC2"
		},
		{
			"bufferView":17,
			"componentType":5123,
			"count":120,
			"type":"SCALAR"
		},
		{
			"bufferView":18,
			"componentType":5126,
			"count":9613,
			"max":[
				2.1361029148101807,
				0.9688079953193665,
				3.4942290782928467
			],
			"min":[
				-2.1489760875701904,
				-1.1124229431152344,
				0.012833000160753727
			],
			"type":"VEC3"
		},
		{
			"bufferView":19,
			"componentType":5126,
			"count":9613,
			"type":"VEC3"
		},
		{
			"bufferView":20,
			"componentType":5126,
			"count":9613,
			"type":"VEC2"
		},
		{
			"bufferView":21,
			"componentType":5123,
			"count":46608,
			"type":"SCALAR"
		},
		{
			"bufferView":22,
			"componentType":5126,
			"count":8102,
			"max":[
				166.07200622558594,
				277.06201171875,
				80.11799621582031
			],
			"min":[
				-166.07200622558594,
				-187.51100158691406,
				-80.11799621582031
			],
			"type":"VEC3"
		},
		{
			"bufferView":23,
			"componentType":5126,
			"count":8102,
			"type":"VEC3"
		},
		{
			"bufferView":24,
			"componentType":5126,
			"count":8102,
			"type":"VEC2"
		},
		{
			"bufferView":25,
			"componentType":5123,
			"count":36396,
			"type":"SCALAR"
		},
		{
			"bufferView":26,
			"componentType":5126,
			"count":13851,
			"max":[
				187.86599731445312,
				221.56900024414062,
				66.46040344238281
			],
			"min":[
				-187.86599731445312,
				-221.56900024414062,
				-66.46040344238281
			],
			"type":"VEC3"
		},
		{
			"bufferView":27,
			"componentType":5126,
			"count":13851,
			"type":"VEC3"
		},
		{
			"bufferView":28,
			"componentType":5126,
			"count":13851,
			"type":"VEC2"
		},
		{
			"bufferView":29,
			"componentType":5123,
			"count":69786,
			"type":"SCALAR"
		},
		{
			"bufferView":30,
			"componentType":5126,
			"count":44,
			"max":[
				12.333900451660156,
				77.74079895019531,
				156.7637939453125
			],
			"min":[
				-13.146499633789062,
				20.62030029296875,
				133.22300720214844
			],
			"type":"VEC3"
		},
		{
			"bufferView":31,
			"componentType":5126,
			"count":44,
			"type":"VEC3"
		},
		{
			"bufferView":32,
			"componentType":5126,
			"count":44,
			"type":"VEC2"
		},
		{
			"bufferView":33,
			"componentType":5123,
			"count":90,
			"type":"SCALAR"
		},
		{
			"bufferView":34,
			"componentType":5126,
			"count":737,
			"max":[
				48.06589889526367,
				61.61370086669922,
				146.451904296875
			],
			"min":[
				-48.06589889526367,
				-80.03189849853516,
				4.701200008392334
			],
			"type":"VEC3"
		},
		{
			"bufferView":35,
			"componentType":5126,
			"count":737,
			"type":"VEC3"
		},
		{
			"bufferView":36,
			"componentType":5126,
			"count":737,
			"type":"VEC2"
		},
		{
			"bufferView":37,
			"componentType":5123,
			"count":1377,
			"type":"SCALAR"
		},
		{
			"bufferView":38,
			"componentType":5126,
			"count":364,
			"max":[
				20.03420066833496,
				80.03189849853516,
				182.93670654296875
			],
			"min":[
				-20.942899703979492,
				-19.855899810791016,
				120.45850372314453
			],
			"type":"VEC3"
		},
		{
			"bufferView":39,
			"componentType":5126,
			"count":364,
			"type":"VEC3"
		},
		{
			"bufferView":40,
			"componentType":5126,
			"count":364,
			"type":"VEC2"
		},
		{
			"bufferView":41,
			"componentType":5123,
			"count":1728,
			"type":"SCALAR"
		},
		{
			"bufferView":42,
			"componentType":5126,
			"count":274,
			"max":[
				41.04560089111328,
				62.917701721191406,
				20
			],
			"min":[
				-41.95439910888672,
				42.917701721191406,
				0
			],
			"type":"VEC3"
		},
		{
			"bufferView":43,
			"componentType":5126,
			"count":274,
			"type":"VEC3"
		},
		{
			"bufferView":44,
			"componentType":5126,
			"count":274,
			"type":"VEC2"
		},
		{
			"bufferView":45,
			"componentType":5123,
			"count":840,
			"type":"SCALAR"
		},
		{
			"bufferView":46,
			"componentType":5126,
			"count":343,
			"max":[
				19.367000579833984,
				-28.539100646972656,
				36.92219924926758
			],
			"min":[
				-20.27429962158203,
				-65.48930358886719,
				-0.02810000069439411
			],
			"type":"VEC3"
		},
		{
			"bufferView":47,
			"componentType":5126,
			"count":343,
			"type":"VEC3"
		},
		{
			"bufferView":48,
			"componentType":5126,
			"count":343,
			"type":"VEC2"
		},
		{
			"bufferView":49,
			"componentType":5123,
			"count":876,
			"type":"SCALAR"
		},
		{
			"bufferView":50,
			"componentType":5126,
			"count":29481,
			"max":[
				0.30104923248291016,
				0.7396297454833984,
				-9.928784493240528e-06
			],
			"min":[
				-0.30104923248291016,
				-0.7811660766601562,
				-0.47065475583076477
			],
			"type":"VEC3"
		},
		{
			"bufferView":51,
			"componentType":5126,
			"count":29481,
			"type":"VEC3"
		},
		{
			"bufferView":52,
			"componentType":5126,
			"count":29481,
			"type":"VEC2"
		},
		{
			"bufferView":53,
			"componentType":5123,
			"count":149124,
			"type":"SCALAR"
		},
		{
			"bufferView":54,
			"componentType":5126,
			"count":847,
			"max":[
				0.29004955291748047,
				0.5443248748779297,
				-0.195332333445549
			],
			"min":[
				-0.2899599075317383,
				-0.5858325958251953,
				-0.27533233165740967
			],
			"type":"VEC3"
		},
		{
			"bufferView":55,
			"componentType":5126,
			"count":847,
			"type":"VEC3"
		},
		{
			"bufferView":56,
			"componentType":5126,
			"count":847,
			"type":"VEC2"
		},
		{
			"bufferView":57,
			"componentType":5123,
			"count":1992,
			"type":"SCALAR"
		},
		{
			"bufferView":58,
			"componentType":5126,
			"count":11559,
			"max":[
				0.1668987274169922,
				0.5311832427978516,
				-0.41476136445999146
			],
			"min":[
				-0.16715431213378906,
				0.09760856628417969,
				-0.7750036120414734
			],
			"type":"VEC3"
		},
		{
			"bufferView":59,
			"componentType":5126,
			"count":11559,
			"type":"VEC3"
		},
		{
			"bufferView":60,
			"componentType":5126,
			"count":11559,
			"type":"VEC2"
		},
		{
			"bufferView":61,
			"componentType":5123,
			"count":55716,
			"type":"SCALAR"
		},
		{
			"bufferView":62,
			"componentType":5126,
			"count":6431,
			"max":[
				0.17499256134033203,
				0.7811660766601562,
				-0.13519634306430817
			],
			"min":[
				-0.17500686645507812,
				-0.6420516967773438,
				-0.6374942064285278
			],
			"type":"VEC3"
		},
		{
			"bufferView":63,
			"componentType":5126,
			"count":6431,
			"type":"VEC3"
		},
		{
			"bufferView":64,
			"componentType":5126,
			"count":6431,
			"type":"VEC2"
		},
		{
			"bufferView":65,
			"componentType":5126,
			"count":6431,
			"type":"VEC2"
		},
		{
			"bufferView":66,
			"componentType":5123,
			"count":26880,
			"type":"SCALAR"
		}
	],
	"bufferViews":[
		{
			"buffer":0,
			"byteLength":1392,
			"byteOffset":0,
			"target":34962
		},
		{
			"buffer":0,
			"byteLength":1392,
			"byteOffset":1392,
			"target":34962
		},
		{
			"buffer":0,
			"byteLength":928,
			"byteOffset":2784,
			"target":34962
		},
		{
			"buffer":0,
			"byteLength":240,
			"byteOffset":3712,
			"target":34963
		},
		{
			"buffer":0,
			"byteLength":57696,
			"byteOffset":3952,
			"target":34962
		},
		{
			"buffer":0,
			"byteLength":57696,
			"byteOffset":61648,
			"target":34962
		},
		{
			"buffer":0,
			"byteLength":38464,
			"byteOffset":119344,
			"target":34962
		},
		{
			"buffer":0,
			"byteLength":38464,
			"byteOffset":157808,
			"target":34962
		},
		{
			"buffer":0,
			"byteLength":38464,
			"byteOffset":196272,
			"target":34962
		},
		{
			"buffer":0,
			"byteLength":30900,
			"byteOffset":234736,
			"target":34963
		},
		{
			"buffer":0,
			"byteLength":10368,
			"byteOffset":265636,
			"target":34962
		},
		{
			"buffer":0,
			"byteLength":10368,
			"byteOffset":276004,
			"target":34962
		},
		{
			"buffer":0,
			"byteLength":6912,
			"byteOffset":286372,
			"target":34962
		},
		{
			"buffer":0,
			"byteLength":5148,
			"byteOffset":293284,
			"target":34963
		},
		{
			"buffer":0,
			"byteLength":1392,
			"byteOffset":298432,
			"target":34962
		},
		{
			"buffer":0,
			"byteLength":1392,
			"byteOffset":299824,
			"target":34962
		},
		{
			"buffer":0,
			"byteLength":928,
			"byteOffset":301216,
			"target":34962
		},
		{
			"buffer":0,
			"byteLength":240,
			"byteOffset":302144,
			"target":34963
		},
		{
			"buffer":0,
			"byteLength":115356,
			"byteOffset":302384,
			"target":34962
		},
		{
			"buffer":0,
			"byteLength":115356,
			"byteOffset":417740,
			"target":34962
		},
		{
			"buffer":0,
			"byteLength":76904,
			"byteOffset":533096,
			"target":34962
		},
		{
			"buffer":0,
			"byteLength":93216,
			"byteOffset":610000,
			"target":34963
		},
		{
			"buffer":0,
			"byteLength":97224,
			"byteOffset":703216,
			"target":34962
		},
		{
			"buffer":0,
			"byteLength":97224,
			"byteOffset":800440,
			"target":34962
		},
		{
			"buffer":0,
			"byteLength":64816,
			"byteOffset":897664,
			"target":34962
		},
		{
			"buffer":0,
			"byteLength":72792,
			"byteOffset":962480,
			"target":34963
		},
		{
			"buffer":0,
			"byteLength":166212,
			"byteOffset":1035272,
			"target":34962
		},
		{
			"buffer":0,
			"byteLength":166212,
			"byteOffset":1201484,
			"target":34962
		},
		{
			"buffer":0,
			"byteLength":110808,
			"byteOffset":1367696,
			"target":34962
		},
		{
			"buffer":0,
			"byteLength":139572,
			"byteOffset":1478504,
			"target":34963
		},
		{
			"buffer":0,
			"byteLength":528,
			"byteOffset":1618076,
			"target":34962
		},
		{
			"buffer":0,
			"byteLength":528,
			"byteOffset":1618604,
			"target":34962
		},
		{
			"buffer":0,
			"byteLength":352,
			"byteOffset":1619132,
			"target":34962
		},
		{
			"buffer":0,
			"byteLength":180,
			"byteOffset":1619484,
			"target":34963
		},
		{
			"buffer":0,
			"byteLength":8844,
			"byteOffset":1619664,
			"target":34962
		},
		{
			"buffer":0,
			"byteLength":8844,
			"byteOffset":1628508,
			"target":34962
		},
		{
			"buffer":0,
			"byteLength":5896,
			"byteOffset":1637352,
			"target":34962
		},
		{
			"buffer":0,
			"byteLength":2754,
			"byteOffset":1643248,
			"target":34963
		},
		{
			"buffer":0,
			"byteLength":4368,
			"byteOffset":1646004,
			"target":34962
		},
		{
			"buffer":0,
			"byteLength":4368,
			"byteOffset":1650372,
			"target":34962
		},
		{
			"buffer":0,
			"byteLength":2912,
			"byteOffset":1654740,
			"target":34962
		},
		{
			"buffer":0,
			"byteLength":3456,
			"byteOffset":1657652,
			"target":34963
		},
		{
			"buffer":0,
			"byteLength":3288,
			"byteOffset":1661108,
			"target":34962
		},
		{
			"buffer":0,
			"byteLength":3288,
			"byteOffset":1664396,
			"target":34962
		},
		{
			"buffer":0,
			"byteLength":2192,
			"byteOffset":1667684,
			"target":34962
		},
		{
			"buffer":0,
			"byteLength":1680,
			"byteOffset":1669876,
			"target":34963
		},
		{
			"buffer":0,
			"byteLength":4116,
			"byteOffset":1671556,
			"target":34962
		},
		{
			"buffer":0,
			"byteLength":4116,
			"byteOffset":1675672,
			"target":34962
		},
		{
			"buffer":0,
			"byteLength":2744,
			"byteOffset":1679788,
			"target":34962
		},
		{
			"buffer":0,
			"byteLength":1752,
			"byteOffset":1682532,
			"target":34963
		},
		{
			"buffer":0,
			"byteLength":353772,
			"byteOffset":1684284,
			"target":34962
		},
		{
			"buffer":0,
			"byteLength":353772,
			"byteOffset":2038056,
			"target":34962
		},
		{
			"buffer":0,
			"byteLength":235848,
			"byteOffset":2391828,
			"target":34962
		},
		{
			"buffer":0,
			"byteLength":298248,
			"byteOffset":2627676,
			"target":34963
		},
		{
			"buffer":0,
			"byteLength":10164,
			"byteOffset":2925924,
			"target":34962
		},
		{
			"buffer":0,
			"byteLength":10164,
			"byteOffset":2936088,
			"target":34962
		},
		{
			"buffer":0,
			"byteLength":6776,
			"byteOffset":2946252,
			"target":34962
		},
		{
			"buffer":0,
			"byteLength":3984,
			"byteOffset":2953028,
			"target":34963
		},
		{
			"buffer":0,
			"byteLength":138708,
			"byteOffset":2957012,
			"target":34962
		},
		{
			"buffer":0,
			"byteLength":138708,
			"byteOffset":3095720,
			"target":34962
		},
		{
			"buffer":0,
			"byteLength":92472,
			"byteOffset":3234428,
			"target":34962
		},
		{
			"buffer":0,
			"byteLength":111432,
			"byteOffset":3326900,
			"target":34963
		},
		{
			"buffer":0,
			"byteLength":77172,
			"byteOffset":3438332,
			"target":34962
		},
		{
			"buffer":0,
			"byteLength":77172,
			"byteOffset":3515504,
			"target":34962
		},
		{
			"buffer":0,
			"byteLength":51448,
			"byteOffset":3592676,
			"target":34962
		},
		{
			"buffer":0,
			"byteLength":51448,
			"byteOffset":3644124,
			"target":34962
		},
		{
			"buffer":0,
			"byteLength":53760,
			"byteOffset":3695572,
			"target":34963
		}
	],
	"samplers":[
		{
			"magFilter":9729,
			"minFilter":9987
		}
	],
	"buffers":[
		{
			"byteLength":3749332,
			"uri":"scene.bin"
		}
	]
}
