{
	"asset":{
		"generator":"Khronos glTF Blender I/O v4.5.48",
		"version":"2.0"
	},
	"scene":0,
	"scenes":[
		{
			"name":"Scene",
			"nodes":[
				0
			]
		}
	],
	"nodes":[
		{
			"mesh":0,
			"name":"dragon",
			"rotation":[
				0.70710688829422,
				0,
				0,
				0.7071066498756409
			]
		}
	],
	"materials":[
		{
			"doubleSided":true,
			"name":"Material.001",
			"pbrMetallicRoughness":{
				"baseColorFactor":[
					0.8024280071258545,
					0.4281364679336548,
					0,
					1
				],
				"roughnessFactor":0
			}
		}
	],
	"meshes":[
		{
			"name":"dragon",
			"primitives":[
				{
					"attributes":{
						"POSITION":0,
						"NORMAL":1
					},
					"indices":2,
					"material":0
				}
			]
		}
	],
	"accessors":[
		{
			"bufferView":0,
			"componentType":5126,
			"count":440447,
			"max":[
				0.20739500224590302,
				0.5277529954910278,
				0.2829580008983612
			],
			"min":[
				-0.239779993891716,
				-0.47224700450897217,
				-0.4220220148563385
			],
			"type":"VEC3"
		},
		{
			"bufferView":1,
			"componentType":5126,
			"count":440447,
			"type":"VEC3"
		},
		{
			"bufferView":2,
			"componentType":5125,
			"count":2613918,
			"type":"SCALAR"
		}
	],
	"bufferViews":[
		{
			"buffer":0,
			"byteLength":5285364,
			"byteOffset":0,
			"target":34962
		},
		{
			"buffer":0,
			"byteLength":5285364,
			"byteOffset":5285364,
			"target":34962
		},
		{
			"buffer":0,
			"byteLength":10455672,
			"byteOffset":10570728,
			"target":34963
		}
	],
	"buffers":[
		{
			"byteLength":21026400,
			"uri":"goldDragon.bin"
		}
	]
}
