{
	"asset":{
		"generator":"Khronos glTF Blender I/O v3.5.30",
		"version":"2.0"
	},
	"extensionsUsed":[
		"KHR_materials_specular",
		"KHR_materials_emissive_strength"
	],
	"scene":0,
	"scenes":[
		{
			"name":"Scene",
			"nodes":[
				0,
				32,
				36,
				39,
				46,
				48,
				51,
				73
			]
		}
	],
	"nodes":[
		{
			"mesh":0,
			"name":"Object_6"
		},
		{
			"mesh":1,
			"name":"defaultMaterial.004"
		},
		{
			"children":[
				1
			],
			"name":"Bishop",
			"rotation":[
				-0.03552861139178276,
				-0.7062135934829712,
				-0.7062137722969055,
				0.03552861511707306
			],
			"scale":[
				100.0000228881836,
				100.00000762939453,
				100.0000228881836
			],
			"translation":[
				-7.5759663581848145,
				7.89569091796875,
				17.599105834960938
			]
		},
		{
			"mesh":2,
			"name":"defaultMaterial.006"
		},
		{
			"children":[
				3
			],
			"name":"Bishop.001",
			"rotation":[
				-0.70710688829422,
				0,
				0,
				0.7071066498756409
			],
			"scale":[
				100,
				99.99999237060547,
				100
			],
			"translation":[
				7.547813415527344,
				7.895698547363281,
				-2.443830966949463
			]
		},
		{
			"mesh":3,
			"name":"defaultMaterial.013"
		},
		{
			"children":[
				5
			],
			"name":"Black",
			"rotation":[
				-0.70710688829422,
				0,
				0,
				0.7071066498756409
			],
			"scale":[
				100,
				99.99999237060547,
				100
			],
			"translation":[
				0,
				4.556800842285156,
				0
			]
		},
		{
			"mesh":4,
			"name":"defaultMaterial.014"
		},
		{
			"children":[
				7
			],
			"name":"Board",
			"rotation":[
				-0.70710688829422,
				0,
				0,
				0.7071066498756409
			],
			"scale":[
				100,
				99.99999237060547,
				100
			],
			"translation":[
				0,
				3.3034896850585938,
				0
			]
		},
		{
			"mesh":5,
			"name":"defaultMaterial.002"
		},
		{
			"children":[
				9
			],
			"name":"King",
			"rotation":[
				-0.09574190527200699,
				0.7005951404571533,
				0.7005951404571533,
				0.09574190527200699
			],
			"scale":[
				100.00000762939453,
				100.00000762939453,
				100.00000762939453
			],
			"translation":[
				2.58355712890625,
				9.130691528320312,
				17.58517074584961
			]
		},
		{
			"mesh":6,
			"name":"defaultMaterial.010"
		},
		{
			"children":[
				11
			],
			"name":"King.001",
			"rotation":[
				-0.07482577860355377,
				0.7031365633010864,
				0.7031367421150208,
				0.07482579350471497
			],
			"scale":[
				100.0000228881836,
				100.00001525878906,
				100.0000228881836
			],
			"translation":[
				2.478895902633667,
				9.130683898925781,
				-17.529207229614258
			]
		},
		{
			"mesh":7,
			"name":"defaultMaterial"
		},
		{
			"children":[
				13
			],
			"name":"Knight",
			"rotation":[
				-0.13916578888893127,
				-0.6932770013809204,
				-0.6932768821716309,
				0.13916581869125366
			],
			"scale":[
				99.99999237060547,
				99.99999237060547,
				100.00000762939453
			],
			"translation":[
				-12.532694816589355,
				7.161781311035156,
				17.19945526123047
			]
		},
		{
			"mesh":8,
			"name":"defaultMaterial.008"
		},
		{
			"children":[
				15
			],
			"name":"Knight.001",
			"rotation":[
				-0.70710688829422,
				0,
				0,
				0.7071066498756409
			],
			"scale":[
				100,
				99.99999237060547,
				100
			],
			"translation":[
				7.353246212005615,
				7.161773681640625,
				-6.9776530265808105
			]
		},
		{
			"mesh":9,
			"name":"defaultMaterial.005"
		},
		{
			"children":[
				17
			],
			"name":"Pawn",
			"rotation":[
				-0.70710688829422,
				0,
				0,
				0.7071066498756409
			],
			"scale":[
				100,
				99.99999237060547,
				100
			],
			"translation":[
				17.611949920654297,
				6.4737091064453125,
				12.837499618530273
			]
		},
		{
			"mesh":10,
			"name":"defaultMaterial.009"
		},
		{
			"children":[
				19
			],
			"name":"Pawn.001",
			"rotation":[
				-0.70710688829422,
				0,
				0,
				0.7071066498756409
			],
			"scale":[
				100,
				99.99999237060547,
				100
			],
			"translation":[
				-2.4330782890319824,
				6.4737091064453125,
				-2.384667158126831
			]
		},
		{
			"mesh":11,
			"name":"defaultMaterial.001"
		},
		{
			"children":[
				21
			],
			"name":"Queen",
			"rotation":[
				0,
				0.7071068286895752,
				0.7071068286895752,
				1.4161341255203297e-07
			],
			"scale":[
				100.0000228881836,
				100.00001525878906,
				100.0000228881836
			],
			"translation":[
				-2.485731840133667,
				9.012214660644531,
				17.52903938293457
			]
		},
		{
			"mesh":12,
			"name":"defaultMaterial.011"
		},
		{
			"children":[
				23
			],
			"name":"Queen.001",
			"rotation":[
				0,
				0.7071068286895752,
				0.7071068286895752,
				1.4161341255203297e-07
			],
			"scale":[
				100.0000228881836,
				100.00001525878906,
				100.0000228881836
			],
			"translation":[
				-2.381068706512451,
				9.012214660644531,
				-17.585346221923828
			]
		},
		{
			"mesh":13,
			"name":"defaultMaterial.003"
		},
		{
			"children":[
				25
			],
			"name":"Rook",
			"rotation":[
				-0.7061063051223755,
				-0.03760165348649025,
				-0.03760165348649025,
				0.7061063051223755
			],
			"scale":[
				100.00000762939453,
				100.00000762939453,
				100.00000762939453
			],
			"translation":[
				-17.50314712524414,
				7.053428649902344,
				17.675472259521484
			]
		},
		{
			"mesh":14,
			"name":"defaultMaterial.007"
		},
		{
			"children":[
				27
			],
			"name":"Rook.001",
			"rotation":[
				-0.70710688829422,
				0,
				0,
				0.7071066498756409
			],
			"scale":[
				100,
				99.99999237060547,
				100
			],
			"translation":[
				-17.503141403198242,
				7.053428649902344,
				-17.49126434326172
			]
		},
		{
			"mesh":15,
			"name":"defaultMaterial.012"
		},
		{
			"children":[
				29
			],
			"name":"White",
			"rotation":[
				-0.70710688829422,
				0,
				0,
				0.7071066498756409
			],
			"scale":[
				100,
				99.99999237060547,
				100
			],
			"translation":[
				0,
				4.557212829589844,
				0
			]
		},
		{
			"children":[
				2,
				4,
				6,
				8,
				10,
				12,
				14,
				16,
				18,
				20,
				22,
				24,
				26,
				28,
				30
			],
			"name":"Collada visual scene group",
			"rotation":[
				0.70710688829422,
				0,
				0,
				0.7071066498756409
			]
		},
		{
			"children":[
				31
			],
			"name":"Sketchfab_model.001",
			"rotation":[
				-0.705888569355011,
				0.04148976504802704,
				0.04148976877331734,
				0.7058885097503662
			],
			"scale":[
				0.03175117447972298,
				0.03175117447972298,
				0.03175117447972298
			],
			"translation":[
				0.16007831692695618,
				2.4698901176452637,
				0.03177127242088318
			]
		},
		{
			"mesh":16,
			"name":"Object_2",
			"translation":[
				111.24520111083984,
				-23.551897048950195,
				-54.40533447265625
			]
		},
		{
			"mesh":17,
			"name":"Object_3",
			"translation":[
				-5.005122147849761e-06,
				-6.866455078125e-05,
				-2.288818359375e-05
			]
		},
		{
			"children":[
				33,
				34
			],
			"name":"\ufffd\ufffd\ufffd\ufffd\ufffd\ufffd\ufffd\ufffd\ufffd\ufffd\ufffd\ufffd.obj.cleaner.gles",
			"translation":[
				-5.005122147849761e-06,
				-6.866455078125e-05,
				-2.288818359375e-05
			]
		},
		{
			"children":[
				35
			],
			"name":"Sketchfab_model.003",
			"rotation":[
				0.07123059034347534,
				0.9168545007705688,
				-0.18993517756462097,
				0.343843936920166
			],
			"scale":[
				0.004476344212889671,
				0.004476343747228384,
				0.004476344212889671
			],
			"translation":[
				0.9969303607940674,
				2.516068458557129,
				-0.927457869052887
			]
		},
		{
			"mesh":18,
			"name":"Object_2.001",
			"translation":[
				12.818378448486328,
				-3.143548011779785,
				0
			]
		},
		{
			"children":[
				37
			],
			"name":"ChalicePrimitive1_LP.OBJ.cleaner.materialmerger.gles"
		},
		{
			"children":[
				38
			],
			"name":"Sketchfab_model.004",
			"rotation":[
				-0.70710688829422,
				0,
				0,
				0.7071066498756409
			],
			"scale":[
				0.019928697496652603,
				0.019928699359297752,
				0.019928699359297752
			],
			"translation":[
				-1.0381324291229248,
				2.4767515659332275,
				0.1134822890162468
			]
		},
		{
			"mesh":19,
			"name":"round_wooden_table_01_round_wooden_table_01_0",
			"translation":[
				-0.1634952872991562,
				0,
				0
			]
		},
		{
			"children":[
				40
			],
			"name":"round_wooden_table_01",
			"rotation":[
				-0.70710688829422,
				0,
				0,
				0.7071066498756409
			],
			"scale":[
				100.00000762939453,
				99.99998474121094,
				99.99998474121094
			]
		},
		{
			"mesh":20,
			"name":"round_wooden_table_01_bolts_round_wooden_table_01_0"
		},
		{
			"children":[
				42
			],
			"name":"round_wooden_table_01_bolts",
			"rotation":[
				-0.70710688829422,
				0,
				0,
				0.7071066498756409
			],
			"scale":[
				100.00000762939453,
				99.99998474121094,
				99.99998474121094
			]
		},
		{
			"children":[
				41,
				43
			],
			"name":"RootNode"
		},
		{
			"children":[
				44
			],
			"name":"round_wooden_table_01_4k.fbx",
			"rotation":[
				0.70710688829422,
				0,
				0,
				0.7071066498756409
			],
			"scale":[
				0.009999999776482582,
				0.010000001639127731,
				0.010000001639127731
			]
		},
		{
			"children":[
				45
			],
			"name":"Sketchfab_model",
			"rotation":[
				-0.70710688829422,
				0,
				0,
				0.7071066498756409
			],
			"scale":[
				2.4746346473693848,
				2.474634885787964,
				2.474634885787964
			],
			"translation":[
				0.5353723168373108,
				0,
				0
			]
		},
		{
			"name":"Warhorn.obj.cleaner.materialmerger.gles",
			"translation":[
				2.86102294921875e-06,
				0,
				0
			]
		},
		{
			"children":[
				47
			],
			"name":"Sketchfab_model.002",
			"rotation":[
				-0.6034923791885376,
				-0.368506520986557,
				0.36850643157958984,
				0.6034923195838928
			],
			"scale":[
				0.046039171516895294,
				0.04603917524218559,
				0.046039171516895294
			],
			"translation":[
				1.3835453987121582,
				2.507589340209961,
				0
			]
		},
		{
			"mesh":21,
			"name":"Object_2.002",
			"rotation":[
				-0.007093516178429127,
				-0.9422006607055664,
				-0.1592956930398941,
				0.2946736216545105
			],
			"scale":[
				0.24382521212100983,
				0.2438252568244934,
				0.24382521212100983
			],
			"translation":[
				6.031745433807373,
				27.49791145324707,
				16.846725463867188
			]
		},
		{
			"children":[
				49
			],
			"name":"dagd 230 wip 2.obj.cleaner.materialmerger.gles"
		},
		{
			"children":[
				50
			],
			"name":"Sketchfab_model.005",
			"rotation":[
				0,
				0.7071068286895752,
				0,
				0.7071067094802856
			],
			"scale":[
				0.07973361760377884,
				0.07973361015319824,
				0.07973361760377884
			]
		},
		{
			"name":"archway1",
			"translation":[
				2.272424808325013e-06,
				0,
				-501.43048095703125
			]
		},
		{
			"name":"door",
			"translation":[
				1.9320122003555298,
				0,
				-10.276658058166504
			]
		},
		{
			"name":"door1",
			"translation":[
				1.9320118427276611,
				0,
				-507.432373046875
			]
		},
		{
			"name":"floor",
			"translation":[
				0,
				0,
				8.164439350366592e-06
			]
		},
		{
			"name":"floor1",
			"translation":[
				2.6822067411558237e-06,
				0,
				-499.9999694824219
			]
		},
		{
			"name":"light",
			"translation":[
				-77.1125717163086,
				0,
				104.62274932861328
			]
		},
		{
			"mesh":22,
			"name":"light1_color_0",
			"translation":[
				0.020776482298970222,
				-3.9042379285092466e-06,
				-72.2208480834961
			]
		},
		{
			"mesh":23,
			"name":"light1_TrimSheet_0",
			"translation":[
				0.020776482298970222,
				-3.9042379285092466e-06,
				-72.2208480834961
			]
		},
		{
			"children":[
				58,
				59
			],
			"name":"light1",
			"translation":[
				-77.1125717163086,
				0,
				-178.46685791015625
			]
		},
		{
			"name":"light2",
			"translation":[
				-77.11256408691406,
				0,
				-406.3548583984375
			]
		},
		{
			"mesh":24,
			"name":"light3_color_0",
			"rotation":[
				0,
				-0.7051377892494202,
				0,
				0.7090703845024109
			],
			"translation":[
				367.9928894042969,
				2.3444565158570185e-05,
				433.678955078125
			]
		},
		{
			"mesh":25,
			"name":"light3_TrimSheet_0",
			"rotation":[
				0,
				-0.7051377892494202,
				0,
				0.7090703845024109
			],
			"translation":[
				367.9928894042969,
				2.3444565158570185e-05,
				433.678955078125
			]
		},
		{
			"children":[
				62,
				63
			],
			"name":"light3",
			"translation":[
				-77.11256408691406,
				0,
				-713.1871337890625
			]
		},
		{
			"mesh":26,
			"name":"wall1_TrimSheet_0",
			"translation":[
				0,
				0,
				8.164439350366592e-06
			]
		},
		{
			"mesh":27,
			"name":"wall1_wall_0",
			"translation":[
				0,
				0,
				8.164439350366592e-06
			]
		},
		{
			"children":[
				65,
				66
			],
			"name":"wall1",
			"translation":[
				0,
				0,
				8.164439350366592e-06
			]
		},
		{
			"mesh":28,
			"name":"wall2_TrimSheet_0",
			"rotation":[
				0,
				-0.7051377892494202,
				0,
				0.7090703845024109
			],
			"translation":[
				78.12525939941406,
				1.6152440366568044e-05,
				298.788818359375
			]
		},
		{
			"mesh":29,
			"name":"wall2_wall_0",
			"rotation":[
				0,
				-0.7051377892494202,
				0,
				0.7090703845024109
			],
			"translation":[
				78.12525939941406,
				1.6152440366568044e-05,
				298.788818359375
			]
		},
		{
			"children":[
				68,
				69
			],
			"name":"wall2",
			"translation":[
				2.6822067411558237e-06,
				0,
				-499.9999694824219
			]
		},
		{
			"children":[
				52,
				53,
				54,
				55,
				56,
				57,
				60,
				61,
				64,
				67,
				70
			],
			"name":"RootNode.001",
			"translation":[
				0,
				0,
				8.164439350366592e-06
			]
		},
		{
			"children":[
				71
			],
			"name":"HallwayS.fbx",
			"rotation":[
				0.70710688829422,
				0,
				0,
				0.7071066498756409
			],
			"scale":[
				0.009999998845160007,
				0.010000000707805157,
				0.009999999776482582
			]
		},
		{
			"children":[
				72
			],
			"name":"Sketchfab_model.006",
			"rotation":[
				-0.4999280571937561,
				0.5000719428062439,
				0.5000719428062439,
				0.4999280571937561
			],
			"scale":[
				2.590189218521118,
				2.590189218521118,
				2.5901894569396973
			],
			"translation":[
				5.083827495574951,
				0,
				-0.584397554397583
			]
		}
	],
	"materials":[
		{
			"alphaMode":"BLEND",
			"doubleSided":true,
			"name":"Material.002",
			"pbrMetallicRoughness":{
				"baseColorFactor":[
					0.0069786799140274525,
					0.00794150959700346,
					0.009527229703962803,
					0
				],
				"metallicFactor":0
			}
		},
		{
			"doubleSided":true,
			"extensions":{
				"KHR_materials_specular":{
					"specularColorTexture":{
						"index":0
					}
				}
			},
			"name":"Chess",
			"normalTexture":{
				"index":1
			},
			"occlusionTexture":{
				"index":2
			},
			"pbrMetallicRoughness":{
				"baseColorTexture":{
					"index":3
				},
				"metallicRoughnessTexture":{
					"index":2
				}
			}
		},
		{
			"doubleSided":true,
			"name":"material_0",
			"normalTexture":{
				"index":4,
				"scale":0.7599999904632568
			},
			"occlusionTexture":{
				"index":5
			},
			"pbrMetallicRoughness":{
				"baseColorTexture":{
					"index":6
				},
				"metallicFactor":0.6700000166893005,
				"metallicRoughnessTexture":{
					"index":5
				}
			}
		},
		{
			"name":"default",
			"normalTexture":{
				"index":7
			},
			"occlusionTexture":{
				"index":8
			},
			"pbrMetallicRoughness":{
				"baseColorTexture":{
					"index":9
				},
				"metallicRoughnessTexture":{
					"index":8
				},
				"roughnessFactor":0.7421310544013977
			}
		},
		{
			"doubleSided":true,
			"name":"round_wooden_table_01",
			"normalTexture":{
				"index":10
			},
			"occlusionTexture":{
				"index":11
			},
			"pbrMetallicRoughness":{
				"baseColorTexture":{
					"index":12
				},
				"metallicRoughnessTexture":{
					"index":11
				}
			}
		},
		{
			"doubleSided":true,
			"extensions":{
				"KHR_materials_specular":{
					"specularColorTexture":{
						"index":13
					},
					"specularColorFactor":[
						1.8686866760253904,
						1.0491802692413328,
						1.1132075786590574
					]
				}
			},
			"name":"Default",
			"normalTexture":{
				"index":14
			},
			"occlusionTexture":{
				"index":15,
				"strength":0
			},
			"pbrMetallicRoughness":{
				"baseColorTexture":{
					"index":16
				},
				"metallicRoughnessTexture":{
					"index":15
				}
			}
		},
		{
			"doubleSided":true,
			"emissiveFactor":[
				1,
				1,
				1
			],
			"extensions":{
				"KHR_materials_emissive_strength":{
					"emissiveStrength":7.570090293884277
				}
			},
			"name":"color",
			"pbrMetallicRoughness":{
				"baseColorFactor":[
					0.9158880114555359,
					0.9158880114555359,
					0.9158880114555359,
					1
				],
				"metallicFactor":0,
				"roughnessFactor":0.17477957904338837
			}
		},
		{
			"doubleSided":true,
			"name":"TrimSheet",
			"normalTexture":{
				"index":17
			},
			"pbrMetallicRoughness":{
				"baseColorTexture":{
					"index":18
				},
				"metallicRoughnessTexture":{
					"index":19
				}
			}
		},
		{
			"doubleSided":true,
			"name":"wall",
			"normalTexture":{
				"index":20
			},
			"pbrMetallicRoughness":{
				"baseColorTexture":{
					"index":21
				},
				"metallicRoughnessTexture":{
					"index":22
				}
			}
		}
	],
	"meshes":[
		{
			"name":"Object_1",
			"primitives":[
				{
					"attributes":{
						"POSITION":0,
						"TEXCOORD_0":1,
						"TEXCOORD_1":2,
						"TEXCOORD_2":3,
						"NORMAL":4
					},
					"indices":5,
					"material":0
				}
			]
		},
		{
			"name":"defaultMaterial.004",
			"primitives":[
				{
					"attributes":{
						"POSITION":6,
						"TEXCOORD_0":7,
						"NORMAL":8
					},
					"indices":9,
					"material":1
				}
			]
		},
		{
			"name":"defaultMaterial.006",
			"primitives":[
				{
					"attributes":{
						"POSITION":10,
						"TEXCOORD_0":11,
						"NORMAL":12
					},
					"indices":13,
					"material":1
				}
			]
		},
		{
			"name":"defaultMaterial.013",
			"primitives":[
				{
					"attributes":{
						"POSITION":14,
						"TEXCOORD_0":15,
						"NORMAL":16
					},
					"indices":17,
					"material":1
				}
			]
		},
		{
			"name":"defaultMaterial.014",
			"primitives":[
				{
					"attributes":{
						"POSITION":18,
						"TEXCOORD_0":19,
						"NORMAL":20
					},
					"indices":21,
					"material":1
				}
			]
		},
		{
			"name":"defaultMaterial.002",
			"primitives":[
				{
					"attributes":{
						"POSITION":22,
						"TEXCOORD_0":23,
						"NORMAL":24
					},
					"indices":25,
					"material":1
				}
			]
		},
		{
			"name":"defaultMaterial.010",
			"primitives":[
				{
					"attributes":{
						"POSITION":26,
						"TEXCOORD_0":27,
						"NORMAL":28
					},
					"indices":29,
					"material":1
				}
			]
		},
		{
			"name":"defaultMaterial",
			"primitives":[
				{
					"attributes":{
						"POSITION":30,
						"TEXCOORD_0":31,
						"NORMAL":32
					},
					"indices":33,
					"material":1
				}
			]
		},
		{
			"name":"defaultMaterial.008",
			"primitives":[
				{
					"attributes":{
						"POSITION":34,
						"TEXCOORD_0":35,
						"NORMAL":36
					},
					"indices":37,
					"material":1
				}
			]
		},
		{
			"name":"defaultMaterial.005",
			"primitives":[
				{
					"attributes":{
						"POSITION":38,
						"TEXCOORD_0":39,
						"NORMAL":40
					},
					"indices":41,
					"material":1
				}
			]
		},
		{
			"name":"defaultMaterial.009",
			"primitives":[
				{
					"attributes":{
						"POSITION":42,
						"TEXCOORD_0":43,
						"NORMAL":44
					},
					"indices":41,
					"material":1
				}
			]
		},
		{
			"name":"defaultMaterial.001",
			"primitives":[
				{
					"attributes":{
						"POSITION":45,
						"TEXCOORD_0":46,
						"NORMAL":47
					},
					"indices":48,
					"material":1
				}
			]
		},
		{
			"name":"defaultMaterial.011",
			"primitives":[
				{
					"attributes":{
						"POSITION":49,
						"TEXCOORD_0":50,
						"NORMAL":51
					},
					"indices":48,
					"material":1
				}
			]
		},
		{
			"name":"defaultMaterial.003",
			"primitives":[
				{
					"attributes":{
						"POSITION":52,
						"TEXCOORD_0":53,
						"NORMAL":54
					},
					"indices":55,
					"material":1
				}
			]
		},
		{
			"name":"defaultMaterial.007",
			"primitives":[
				{
					"attributes":{
						"POSITION":56,
						"TEXCOORD_0":57,
						"NORMAL":58
					},
					"indices":59,
					"material":1
				}
			]
		},
		{
			"name":"defaultMaterial.012",
			"primitives":[
				{
					"attributes":{
						"POSITION":60,
						"TEXCOORD_0":61,
						"NORMAL":62
					},
					"indices":63,
					"material":1
				}
			]
		},
		{
			"name":"Object_0.001",
			"primitives":[
				{
					"attributes":{
						"POSITION":64,
						"TEXCOORD_0":65,
						"NORMAL":66
					},
					"indices":67,
					"material":2
				}
			]
		},
		{
			"name":"Object_1.001",
			"primitives":[
				{
					"attributes":{
						"POSITION":68,
						"TEXCOORD_0":69,
						"NORMAL":70
					},
					"indices":71,
					"material":2
				}
			]
		},
		{
			"name":"Object_0.002",
			"primitives":[
				{
					"attributes":{
						"POSITION":72,
						"TEXCOORD_0":73,
						"NORMAL":74
					},
					"indices":75,
					"material":3
				}
			]
		},
		{
			"name":"round_wooden_table_01_round_wooden_table_01_0",
			"primitives":[
				{
					"attributes":{
						"POSITION":76,
						"TEXCOORD_0":77,
						"TEXCOORD_1":78,
						"TEXCOORD_2":79,
						"NORMAL":80
					},
					"indices":81,
					"material":4
				}
			]
		},
		{
			"name":"round_wooden_table_01_bolts_round_wooden_table_01_0",
			"primitives":[
				{
					"attributes":{
						"POSITION":82,
						"TEXCOORD_0":83,
						"TEXCOORD_1":84,
						"TEXCOORD_2":85,
						"NORMAL":86
					},
					"indices":87,
					"material":4
				}
			]
		},
		{
			"name":"Object_0.004",
			"primitives":[
				{
					"attributes":{
						"POSITION":88,
						"TEXCOORD_0":89,
						"NORMAL":90
					},
					"indices":91,
					"material":5
				}
			]
		},
		{
			"name":"light1_color_0",
			"primitives":[
				{
					"attributes":{
						"POSITION":92,
						"TEXCOORD_0":93,
						"NORMAL":94
					},
					"indices":95,
					"material":6
				}
			]
		},
		{
			"name":"light1_TrimSheet_0",
			"primitives":[
				{
					"attributes":{
						"POSITION":96,
						"TEXCOORD_0":97,
						"NORMAL":98
					},
					"indices":99,
					"material":7
				}
			]
		},
		{
			"name":"light3_color_0",
			"primitives":[
				{
					"attributes":{
						"POSITION":100,
						"TEXCOORD_0":101,
						"NORMAL":102
					},
					"indices":95,
					"material":6
				}
			]
		},
		{
			"name":"light3_TrimSheet_0",
			"primitives":[
				{
					"attributes":{
						"POSITION":103,
						"TEXCOORD_0":104,
						"NORMAL":105
					},
					"indices":99,
					"material":7
				}
			]
		},
		{
			"name":"wall1_TrimSheet_0",
			"primitives":[
				{
					"attributes":{
						"POSITION":106,
						"TEXCOORD_0":107,
						"NORMAL":108
					},
					"indices":109,
					"material":7
				}
			]
		},
		{
			"name":"wall1_wall_0",
			"primitives":[
				{
					"attributes":{
						"POSITION":110,
						"TEXCOORD_0":111,
						"NORMAL":112
					},
					"indices":113,
					"material":8
				}
			]
		},
		{
			"name":"wall2_TrimSheet_0",
			"primitives":[
				{
					"attributes":{
						"POSITION":114,
						"TEXCOORD_0":115,
						"NORMAL":116
					},
					"indices":109,
					"material":7
				}
			]
		},
		{
			"name":"wall2_wall_0",
			"primitives":[
				{
					"attributes":{
						"POSITION":117,
						"TEXCOORD_0":118,
						"NORMAL":119
					},
					"indices":113,
					"material":8
				}
			]
		}
	],
	"textures":[
		{
			"sampler":0,
			"source":0
		},
		{
			"sampler":0,
			"source":1
		},
		{
			"sampler":0,
			"source":2
		},
		{
			"sampler":0,
			"source":3
		},
		{
			"sampler":0,
			"source":4
		},
		{
			"sampler":0,
			"source":5
		},
		{
			"sampler":0,
			"source":6
		},
		{
			"sampler":0,
			"source":7
		},
		{
			"sampler":0,
			"source":8
		},
		{
			"sampler":0,
			"source":9
		},
		{
			"sampler":0,
			"source":10
		},
		{
			"sampler":0,
			"source":11
		},
		{
			"sampler":0,
			"source":12
		},
		{
			"sampler":0,
			"source":13
		},
		{
			"sampler":0,
			"source":14
		},
		{
			"sampler":0,
			"source":15
		},
		{
			"sampler":0,
			"source":16
		},
		{
			"sampler":0,
			"source":17
		},
		{
			"sampler":0,
			"source":18
		},
		{
			"sampler":0,
			"source":19
		},
		{
			"sampler":0,
			"source":20
		},
		{
			"sampler":0,
			"source":21
		},
		{
			"sampler":0,
			"source":22
		}
	],
	"images":[
		{
			"mimeType":"image/png",
			"name":"Image",
			"uri":"Image.png"
		},
		{
			"mimeType":"image/png",
			"name":"Chess_normal",
			"uri":"Chess_normal.png"
		},
		{
			"mimeType":"image/png",
			"name":"Chess_metallicRoughness",
			"uri":"Chess_metallicRoughness.png"
		},
		{
			"mimeType":"image/jpeg",
			"name":"Chess_baseColor",
			"uri":"Chess_baseColor.jpg"
		},
		{
			"mimeType":"image/png",
			"name":"material_0_normal",
			"uri":"material_0_normal.png"
		},
		{
			"mimeType":"image/png",
			"name":"material_0_metallicRoughness",
			"uri":"material_0_metallicRoughness.png"
		},
		{
			"mimeType":"image/jpeg",
			"name":"material_0_baseColor",
			"uri":"material_0_baseColor.jpg"
		},
		{
			"mimeType":"image/png",
			"name":"default_normal",
			"uri":"default_normal.png"
		},
		{
			"mimeType":"image/png",
			"name":"default_metallicRoughness",
			"uri":"default_metallicRoughness.png"
		},
		{
			"mimeType":"image/jpeg",
			"name":"default_baseColor",
			"uri":"default_baseColor.jpg"
		},
		{
			"mimeType":"image/png",
			"name":"round_wooden_table_01_normal",
			"uri":"round_wooden_table_01_normal.png"
		},
		{
			"mimeType":"image/png",
			"name":"round_wooden_table_01_metallicRoughness",
			"uri":"round_wooden_table_01_metallicRoughness.png"
		},
		{
			"mimeType":"image/jpeg",
			"name":"round_wooden_table_01_baseColor",
			"uri":"round_wooden_table_01_baseColor.jpg"
		},
		{
			"mimeType":"image/png",
			"name":"Image",
			"uri":"Image-1.png"
		},
		{
			"mimeType":"image/png",
			"name":"Default_normal",
			"uri":"Default_normal.png"
		},
		{
			"mimeType":"image/png",
			"name":"Default_metallicRoughness",
			"uri":"Default_metallicRoughness.png"
		},
		{
			"mimeType":"image/png",
			"name":"Default_baseColor",
			"uri":"Default_baseColor.png"
		},
		{
			"mimeType":"image/png",
			"name":"TrimSheet_normal",
			"uri":"TrimSheet_normal.png"
		},
		{
			"mimeType":"image/jpeg",
			"name":"TrimSheet_baseColor",
			"uri":"TrimSheet_baseColor.jpg"
		},
		{
			"mimeType":"image/png",
			"name":"TrimSheet_metallicRoughness",
			"uri":"TrimSheet_metallicRoughness.png"
		},
		{
			"mimeType":"image/png",
			"name":"wall_normal",
			"uri":"wall_normal.png"
		},
		{
			"mimeType":"image/jpeg",
			"name":"wall_baseColor",
			"uri":"wall_baseColor.jpg"
		},
		{
			"mimeType":"image/png",
			"name":"wall_metallicRoughness",
			"uri":"wall_metallicRoughness.png"
		}
	],
	"accessors":[
		{
			"bufferView":0,
			"componentType":5126,
			"count":4,
			"max":[
				1,
				0,
				1
			],
			"min":[
				-1,
				0,
				-1
			],
			"type":"VEC3"
		},
		{
			"bufferView":1,
			"componentType":5126,
			"count":4,
			"type":"VEC2"
		},
		{
			"bufferView":2,
			"componentType":5126,
			"count":4,
			"type":"VEC2"
		},
		{
			"bufferView":3,
			"componentType":5126,
			"count":4,
			"type":"VEC2"
		},
		{
			"bufferView":4,
			"componentType":5126,
			"count":4,
			"type":"VEC3"
		},
		{
			"bufferView":5,
			"componentType":5123,
			"count":6,
			"type":"SCALAR"
		},
		{
			"bufferView":6,
			"componentType":5126,
			"count":709,
			"max":[
				0.016735000535845757,
				0.016837000846862793,
				0.03316999971866608
			],
			"min":[
				-0.22347599267959595,
				-0.04639200121164322,
				-0.03263400122523308
			],
			"type":"VEC3"
		},
		{
			"bufferView":7,
			"componentType":5126,
			"count":709,
			"type":"VEC2"
		},
		{
			"bufferView":8,
			"componentType":5126,
			"count":709,
			"type":"VEC3"
		},
		{
			"bufferView":9,
			"componentType":5123,
			"count":2184,
			"type":"SCALAR"
		},
		{
			"bufferView":10,
			"componentType":5126,
			"count":710,
			"max":[
				0.017263999208807945,
				0.16753600537776947,
				0.03316999971866608
			],
			"min":[
				-0.017277000471949577,
				-0.016707999631762505,
				-0.03263400122523308
			],
			"type":"VEC3"
		},
		{
			"bufferView":11,
			"componentType":5126,
			"count":710,
			"type":"VEC2"
		},
		{
			"bufferView":12,
			"componentType":5126,
			"count":710,
			"type":"VEC3"
		},
		{
			"bufferView":13,
			"componentType":5123,
			"count":2184,
			"type":"SCALAR"
		},
		{
			"bufferView":14,
			"componentType":5126,
			"count":734,
			"max":[
				0.20000000298023224,
				0.20000000298023224,
				0.0003499999875202775
			],
			"min":[
				-0.20000000298023224,
				-0.20000000298023224,
				-0.0005680000176653266
			],
			"type":"VEC3"
		},
		{
			"bufferView":15,
			"componentType":5126,
			"count":734,
			"type":"VEC2"
		},
		{
			"bufferView":16,
			"componentType":5126,
			"count":734,
			"type":"VEC3"
		},
		{
			"bufferView":17,
			"componentType":5123,
			"count":960,
			"type":"SCALAR"
		},
		{
			"bufferView":18,
			"componentType":5126,
			"count":96,
			"max":[
				0.2159239947795868,
				0.2159239947795868,
				0.015087000094354153
			],
			"min":[
				-0.2159239947795868,
				-0.2159239947795868,
				-0.033034998923540115
			],
			"type":"VEC3"
		},
		{
			"bufferView":19,
			"componentType":5126,
			"count":96,
			"type":"VEC2"
		},
		{
			"bufferView":20,
			"componentType":5126,
			"count":96,
			"type":"VEC3"
		},
		{
			"bufferView":21,
			"componentType":5123,
			"count":150,
			"type":"SCALAR"
		},
		{
			"bufferView":22,
			"componentType":5126,
			"count":510,
			"max":[
				0.019982999190688133,
				0.01998399943113327,
				0.035287998616695404
			],
			"min":[
				-0.01998399943113327,
				-0.019982999190688133,
				-0.045239999890327454
			],
			"type":"VEC3"
		},
		{
			"bufferView":23,
			"componentType":5126,
			"count":510,
			"type":"VEC2"
		},
		{
			"bufferView":24,
			"componentType":5126,
			"count":510,
			"type":"VEC3"
		},
		{
			"bufferView":25,
			"componentType":5123,
			"count":1416,
			"type":"SCALAR"
		},
		{
			"bufferView":26,
			"componentType":5126,
			"count":506,
			"max":[
				0.019982999190688133,
				0.01998399943113327,
				0.03528900071978569
			],
			"min":[
				-0.019982999190688133,
				-0.019982999190688133,
				-0.045239999890327454
			],
			"type":"VEC3"
		},
		{
			"bufferView":27,
			"componentType":5126,
			"count":506,
			"type":"VEC2"
		},
		{
			"bufferView":28,
			"componentType":5126,
			"count":506,
			"type":"VEC3"
		},
		{
			"bufferView":29,
			"componentType":5123,
			"count":1416,
			"type":"SCALAR"
		},
		{
			"bufferView":30,
			"componentType":5126,
			"count":679,
			"max":[
				0.020269999280571938,
				0.12147100269794464,
				0.028555000200867653
			],
			"min":[
				-0.25015801191329956,
				-0.01705400086939335,
				-0.024493999779224396
			],
			"type":"VEC3"
		},
		{
			"bufferView":31,
			"componentType":5126,
			"count":679,
			"type":"VEC2"
		},
		{
			"bufferView":32,
			"componentType":5126,
			"count":679,
			"type":"VEC3"
		},
		{
			"bufferView":33,
			"componentType":5123,
			"count":2208,
			"type":"SCALAR"
		},
		{
			"bufferView":34,
			"componentType":5126,
			"count":680,
			"max":[
				0.020269999280571938,
				0.12412700057029724,
				0.028555000200867653
			],
			"min":[
				-0.21671399474143982,
				-0.01705400086939335,
				-0.024493999779224396
			],
			"type":"VEC3"
		},
		{
			"bufferView":35,
			"componentType":5126,
			"count":680,
			"type":"VEC2"
		},
		{
			"bufferView":36,
			"componentType":5126,
			"count":680,
			"type":"VEC3"
		},
		{
			"bufferView":37,
			"componentType":5123,
			"count":2208,
			"type":"SCALAR"
		},
		{
			"bufferView":38,
			"componentType":5126,
			"count":2264,
			"max":[
				0.013989999890327454,
				0.11647599935531616,
				0.021443000063300133
			],
			"min":[
				-0.3628939986228943,
				-0.013989999890327454,
				-0.01828099973499775
			],
			"type":"VEC3"
		},
		{
			"bufferView":39,
			"componentType":5126,
			"count":2264,
			"type":"VEC2"
		},
		{
			"bufferView":40,
			"componentType":5126,
			"count":2264,
			"type":"VEC3"
		},
		{
			"bufferView":41,
			"componentType":5123,
			"count":7632,
			"type":"SCALAR"
		},
		{
			"bufferView":42,
			"componentType":5126,
			"count":2264,
			"max":[
				0.213687002658844,
				0.11647599935531616,
				0.021443000063300133
			],
			"min":[
				-0.16470499336719513,
				-0.013989999890327454,
				-0.01828099973499775
			],
			"type":"VEC3"
		},
		{
			"bufferView":43,
			"componentType":5126,
			"count":2264,
			"type":"VEC2"
		},
		{
			"bufferView":44,
			"componentType":5126,
			"count":2264,
			"type":"VEC3"
		},
		{
			"bufferView":45,
			"componentType":5126,
			"count":469,
			"max":[
				0.019287999719381332,
				0.019287999719381332,
				0.027758000418543816
			],
			"min":[
				-0.019287999719381332,
				-0.019287999719381332,
				-0.043758999556303024
			],
			"type":"VEC3"
		},
		{
			"bufferView":46,
			"componentType":5126,
			"count":469,
			"type":"VEC2"
		},
		{
			"bufferView":47,
			"componentType":5126,
			"count":469,
			"type":"VEC3"
		},
		{
			"bufferView":48,
			"componentType":5123,
			"count":1338,
			"type":"SCALAR"
		},
		{
			"bufferView":49,
			"componentType":5126,
			"count":469,
			"max":[
				0.019287999719381332,
				0.019287999719381332,
				0.027758000418543816
			],
			"min":[
				-0.019287999719381332,
				-0.019287999719381332,
				-0.043758999556303024
			],
			"type":"VEC3"
		},
		{
			"bufferView":50,
			"componentType":5126,
			"count":469,
			"type":"VEC2"
		},
		{
			"bufferView":51,
			"componentType":5126,
			"count":469,
			"type":"VEC3"
		},
		{
			"bufferView":52,
			"componentType":5126,
			"count":835,
			"max":[
				0.36707499623298645,
				0.05578500032424927,
				0.020214999094605446
			],
			"min":[
				-0.01839200034737587,
				-0.01839200034737587,
				-0.02400599978864193
			],
			"type":"VEC3"
		},
		{
			"bufferView":53,
			"componentType":5126,
			"count":835,
			"type":"VEC2"
		},
		{
			"bufferView":54,
			"componentType":5126,
			"count":835,
			"type":"VEC3"
		},
		{
			"bufferView":55,
			"componentType":5123,
			"count":2082,
			"type":"SCALAR"
		},
		{
			"bufferView":56,
			"componentType":5126,
			"count":821,
			"max":[
				0.3704639971256256,
				0.019843999296426773,
				0.020214999094605446
			],
			"min":[
				-0.01839200034737587,
				-0.01839200034737587,
				-0.02400599978864193
			],
			"type":"VEC3"
		},
		{
			"bufferView":57,
			"componentType":5126,
			"count":821,
			"type":"VEC2"
		},
		{
			"bufferView":58,
			"componentType":5126,
			"count":821,
			"type":"VEC3"
		},
		{
			"bufferView":59,
			"componentType":5123,
			"count":2082,
			"type":"SCALAR"
		},
		{
			"bufferView":60,
			"componentType":5126,
			"count":640,
			"max":[
				0.20000000298023224,
				0.20000000298023224,
				0.0003530000103637576
			],
			"min":[
				-0.20000000298023224,
				-0.20000000298023224,
				-0.0005719999899156392
			],
			"type":"VEC3"
		},
		{
			"bufferView":61,
			"componentType":5126,
			"count":640,
			"type":"VEC2"
		},
		{
			"bufferView":62,
			"componentType":5126,
			"count":640,
			"type":"VEC3"
		},
		{
			"bufferView":63,
			"componentType":5123,
			"count":960,
			"type":"SCALAR"
		},
		{
			"bufferView":64,
			"componentType":5126,
			"count":1808,
			"max":[
				280.39910888671875,
				10.683300018310547,
				20.472999572753906
			],
			"min":[
				-275.4158020019531,
				-10.683300018310547,
				-20.31679916381836
			],
			"type":"VEC3"
		},
		{
			"bufferView":65,
			"componentType":5126,
			"count":1808,
			"type":"VEC2"
		},
		{
			"bufferView":66,
			"componentType":5126,
			"count":1808,
			"type":"VEC3"
		},
		{
			"bufferView":67,
			"componentType":5123,
			"count":8634,
			"type":"SCALAR"
		},
		{
			"bufferView":68,
			"componentType":5126,
			"count":1764,
			"max":[
				280.48748779296875,
				10.67140007019043,
				20.472999572753906
			],
			"min":[
				-275.4158020019531,
				-3.7455999851226807,
				-20.472999572753906
			],
			"type":"VEC3"
		},
		{
			"bufferView":69,
			"componentType":5126,
			"count":1764,
			"type":"VEC2"
		},
		{
			"bufferView":70,
			"componentType":5126,
			"count":1764,
			"type":"VEC3"
		},
		{
			"bufferView":71,
			"componentType":5123,
			"count":7764,
			"type":"SCALAR"
		},
		{
			"bufferView":72,
			"componentType":5126,
			"count":10035,
			"max":[
				7.19784688949585,
				7.187874794006348,
				24.140626907348633
			],
			"min":[
				-7.189064979553223,
				-7.192812919616699,
				5.199999941396527e-05
			],
			"type":"VEC3"
		},
		{
			"bufferView":73,
			"componentType":5126,
			"count":10035,
			"type":"VEC2"
		},
		{
			"bufferView":74,
			"componentType":5126,
			"count":10035,
			"type":"VEC3"
		},
		{
			"bufferView":75,
			"componentType":5123,
			"count":54930,
			"type":"SCALAR"
		},
		{
			"bufferView":76,
			"componentType":5126,
			"count":5190,
			"max":[
				0.6996744871139526,
				0.6996744275093079,
				1.003702998161316
			],
			"min":[
				-0.6996744871139526,
				-0.6996744871139526,
				-0.0013183951377868652
			],
			"type":"VEC3"
		},
		{
			"bufferView":77,
			"componentType":5126,
			"count":5190,
			"type":"VEC2"
		},
		{
			"bufferView":78,
			"componentType":5126,
			"count":5190,
			"type":"VEC2"
		},
		{
			"bufferView":79,
			"componentType":5126,
			"count":5190,
			"type":"VEC2"
		},
		{
			"bufferView":80,
			"componentType":5126,
			"count":5190,
			"type":"VEC3"
		},
		{
			"bufferView":81,
			"componentType":5123,
			"count":23784,
			"type":"SCALAR"
		},
		{
			"bufferView":82,
			"componentType":5126,
			"count":906,
			"max":[
				0.1680731177330017,
				0.1460239589214325,
				0.9358263611793518
			],
			"min":[
				-0.13578639924526215,
				-0.13143043220043182,
				0.9201406836509705
			],
			"type":"VEC3"
		},
		{
			"bufferView":83,
			"componentType":5126,
			"count":906,
			"type":"VEC2"
		},
		{
			"bufferView":84,
			"componentType":5126,
			"count":906,
			"type":"VEC2"
		},
		{
			"bufferView":85,
			"componentType":5126,
			"count":906,
			"type":"VEC2"
		},
		{
			"bufferView":86,
			"componentType":5126,
			"count":906,
			"type":"VEC3"
		},
		{
			"bufferView":87,
			"componentType":5123,
			"count":2136,
			"type":"SCALAR"
		},
		{
			"bufferView":88,
			"componentType":5126,
			"count":5603,
			"max":[
				8.243300437927246,
				21.215200424194336,
				55.019901275634766
			],
			"min":[
				-10.737000465393066,
				6.083399772644043,
				-0.4993000030517578
			],
			"type":"VEC3"
		},
		{
			"bufferView":89,
			"componentType":5126,
			"count":5603,
			"type":"VEC2"
		},
		{
			"bufferView":90,
			"componentType":5126,
			"count":5603,
			"type":"VEC3"
		},
		{
			"bufferView":91,
			"componentType":5123,
			"count":24672,
			"type":"SCALAR"
		},
		{
			"bufferView":92,
			"componentType":5126,
			"count":332,
			"max":[
				8.937662124633789,
				206.4409637451172,
				10.270696640014648
			],
			"min":[
				-8.937662124633789,
				181.87742614746094,
				-10.270699501037598
			],
			"type":"VEC3"
		},
		{
			"bufferView":93,
			"componentType":5126,
			"count":332,
			"type":"VEC2"
		},
		{
			"bufferView":94,
			"componentType":5126,
			"count":332,
			"type":"VEC3"
		},
		{
			"bufferView":95,
			"componentType":5123,
			"count":1800,
			"type":"SCALAR"
		},
		{
			"bufferView":96,
			"componentType":5126,
			"count":287,
			"max":[
				15.899883270263672,
				219.1932373046875,
				15.899885177612305
			],
			"min":[
				-23.022489547729492,
				189.1932373046875,
				-15.899890899658203
			],
			"type":"VEC3"
		},
		{
			"bufferView":97,
			"componentType":5126,
			"count":287,
			"type":"VEC2"
		},
		{
			"bufferView":98,
			"componentType":5126,
			"count":287,
			"type":"VEC3"
		},
		{
			"bufferView":99,
			"componentType":5123,
			"count":972,
			"type":"SCALAR"
		},
		{
			"bufferView":100,
			"componentType":5126,
			"count":332,
			"max":[
				8.937662124633789,
				206.4409637451172,
				10.270696640014648
			],
			"min":[
				-8.937662124633789,
				181.87742614746094,
				-10.270699501037598
			],
			"type":"VEC3"
		},
		{
			"bufferView":101,
			"componentType":5126,
			"count":332,
			"type":"VEC2"
		},
		{
			"bufferView":102,
			"componentType":5126,
			"count":332,
			"type":"VEC3"
		},
		{
			"bufferView":103,
			"componentType":5126,
			"count":287,
			"max":[
				15.899883270263672,
				219.1932373046875,
				15.899885177612305
			],
			"min":[
				-23.022489547729492,
				189.1932373046875,
				-15.899890899658203
			],
			"type":"VEC3"
		},
		{
			"bufferView":104,
			"componentType":5126,
			"count":287,
			"type":"VEC2"
		},
		{
			"bufferView":105,
			"componentType":5126,
			"count":287,
			"type":"VEC3"
		},
		{
			"bufferView":106,
			"componentType":5126,
			"count":717,
			"max":[
				-94.5074462890625,
				118.29837036132812,
				200
			],
			"min":[
				-102.63945770263672,
				6.689450263977051,
				-300
			],
			"type":"VEC3"
		},
		{
			"bufferView":107,
			"componentType":5126,
			"count":717,
			"type":"VEC2"
		},
		{
			"bufferView":108,
			"componentType":5126,
			"count":717,
			"type":"VEC3"
		},
		{
			"bufferView":109,
			"componentType":5123,
			"count":1710,
			"type":"SCALAR"
		},
		{
			"bufferView":110,
			"componentType":5126,
			"count":18,
			"max":[
				-99.46491241455078,
				235.30723571777344,
				200
			],
			"min":[
				-100,
				118.29837036132812,
				-300
			],
			"type":"VEC3"
		},
		{
			"bufferView":111,
			"componentType":5126,
			"count":18,
			"type":"VEC2"
		},
		{
			"bufferView":112,
			"componentType":5126,
			"count":18,
			"type":"VEC3"
		},
		{
			"bufferView":113,
			"componentType":5123,
			"count":48,
			"type":"SCALAR"
		},
		{
			"bufferView":114,
			"componentType":5126,
			"count":717,
			"max":[
				-94.5074462890625,
				118.29837036132812,
				200
			],
			"min":[
				-102.63945770263672,
				6.689450263977051,
				-300
			],
			"type":"VEC3"
		},
		{
			"bufferView":115,
			"componentType":5126,
			"count":717,
			"type":"VEC2"
		},
		{
			"bufferView":116,
			"componentType":5126,
			"count":717,
			"type":"VEC3"
		},
		{
			"bufferView":117,
			"componentType":5126,
			"count":18,
			"max":[
				-99.46491241455078,
				235.30723571777344,
				200
			],
			"min":[
				-100,
				118.29837036132812,
				-300
			],
			"type":"VEC3"
		},
		{
			"bufferView":118,
			"componentType":5126,
			"count":18,
			"type":"VEC2"
		},
		{
			"bufferView":119,
			"componentType":5126,
			"count":18,
			"type":"VEC3"
		}
	],
	"bufferViews":[
		{
			"buffer":0,
			"byteLength":48,
			"byteOffset":0,
			"target":34962
		},
		{
			"buffer":0,
			"byteLength":32,
			"byteOffset":48,
			"target":34962
		},
		{
			"buffer":0,
			"byteLength":32,
			"byteOffset":80,
			"target":34962
		},
		{
			"buffer":0,
			"byteLength":32,
			"byteOffset":112,
			"target":34962
		},
		{
			"buffer":0,
			"byteLength":48,
			"byteOffset":144,
			"target":34962
		},
		{
			"buffer":0,
			"byteLength":12,
			"byteOffset":192,
			"target":34963
		},
		{
			"buffer":0,
			"byteLength":8508,
			"byteOffset":204,
			"target":34962
		},
		{
			"buffer":0,
			"byteLength":5672,
			"byteOffset":8712,
			"target":34962
		},
		{
			"buffer":0,
			"byteLength":8508,
			"byteOffset":14384,
			"target":34962
		},
		{
			"buffer":0,
			"byteLength":4368,
			"byteOffset":22892,
			"target":34963
		},
		{
			"buffer":0,
			"byteLength":8520,
			"byteOffset":27260,
			"target":34962
		},
		{
			"buffer":0,
			"byteLength":5680,
			"byteOffset":35780,
			"target":34962
		},
		{
			"buffer":0,
			"byteLength":8520,
			"byteOffset":41460,
			"target":34962
		},
		{
			"buffer":0,
			"byteLength":4368,
			"byteOffset":49980,
			"target":34963
		},
		{
			"buffer":0,
			"byteLength":8808,
			"byteOffset":54348,
			"target":34962
		},
		{
			"buffer":0,
			"byteLength":5872,
			"byteOffset":63156,
			"target":34962
		},
		{
			"buffer":0,
			"byteLength":8808,
			"byteOffset":69028,
			"target":34962
		},
		{
			"buffer":0,
			"byteLength":1920,
			"byteOffset":77836,
			"target":34963
		},
		{
			"buffer":0,
			"byteLength":1152,
			"byteOffset":79756,
			"target":34962
		},
		{
			"buffer":0,
			"byteLength":768,
			"byteOffset":80908,
			"target":34962
		},
		{
			"buffer":0,
			"byteLength":1152,
			"byteOffset":81676,
			"target":34962
		},
		{
			"buffer":0,
			"byteLength":300,
			"byteOffset":82828,
			"target":34963
		},
		{
			"buffer":0,
			"byteLength":6120,
			"byteOffset":83128,
			"target":34962
		},
		{
			"buffer":0,
			"byteLength":4080,
			"byteOffset":89248,
			"target":34962
		},
		{
			"buffer":0,
			"byteLength":6120,
			"byteOffset":93328,
			"target":34962
		},
		{
			"buffer":0,
			"byteLength":2832,
			"byteOffset":99448,
			"target":34963
		},
		{
			"buffer":0,
			"byteLength":6072,
			"byteOffset":102280,
			"target":34962
		},
		{
			"buffer":0,
			"byteLength":4048,
			"byteOffset":108352,
			"target":34962
		},
		{
			"buffer":0,
			"byteLength":6072,
			"byteOffset":112400,
			"target":34962
		},
		{
			"buffer":0,
			"byteLength":2832,
			"byteOffset":118472,
			"target":34963
		},
		{
			"buffer":0,
			"byteLength":8148,
			"byteOffset":121304,
			"target":34962
		},
		{
			"buffer":0,
			"byteLength":5432,
			"byteOffset":129452,
			"target":34962
		},
		{
			"buffer":0,
			"byteLength":8148,
			"byteOffset":134884,
			"target":34962
		},
		{
			"buffer":0,
			"byteLength":4416,
			"byteOffset":143032,
			"target":34963
		},
		{
			"buffer":0,
			"byteLength":8160,
			"byteOffset":147448,
			"target":34962
		},
		{
			"buffer":0,
			"byteLength":5440,
			"byteOffset":155608,
			"target":34962
		},
		{
			"buffer":0,
			"byteLength":8160,
			"byteOffset":161048,
			"target":34962
		},
		{
			"buffer":0,
			"byteLength":4416,
			"byteOffset":169208,
			"target":34963
		},
		{
			"buffer":0,
			"byteLength":27168,
			"byteOffset":173624,
			"target":34962
		},
		{
			"buffer":0,
			"byteLength":18112,
			"byteOffset":200792,
			"target":34962
		},
		{
			"buffer":0,
			"byteLength":27168,
			"byteOffset":218904,
			"target":34962
		},
		{
			"buffer":0,
			"byteLength":15264,
			"byteOffset":246072,
			"target":34963
		},
		{
			"buffer":0,
			"byteLength":27168,
			"byteOffset":261336,
			"target":34962
		},
		{
			"buffer":0,
			"byteLength":18112,
			"byteOffset":288504,
			"target":34962
		},
		{
			"buffer":0,
			"byteLength":27168,
			"byteOffset":306616,
			"target":34962
		},
		{
			"buffer":0,
			"byteLength":5628,
			"byteOffset":333784,
			"target":34962
		},
		{
			"buffer":0,
			"byteLength":3752,
			"byteOffset":339412,
			"target":34962
		},
		{
			"buffer":0,
			"byteLength":5628,
			"byteOffset":343164,
			"target":34962
		},
		{
			"buffer":0,
			"byteLength":2676,
			"byteOffset":348792,
			"target":34963
		},
		{
			"buffer":0,
			"byteLength":5628,
			"byteOffset":351468,
			"target":34962
		},
		{
			"buffer":0,
			"byteLength":3752,
			"byteOffset":357096,
			"target":34962
		},
		{
			"buffer":0,
			"byteLength":5628,
			"byteOffset":360848,
			"target":34962
		},
		{
			"buffer":0,
			"byteLength":10020,
			"byteOffset":366476,
			"target":34962
		},
		{
			"buffer":0,
			"byteLength":6680,
			"byteOffset":376496,
			"target":34962
		},
		{
			"buffer":0,
			"byteLength":10020,
			"byteOffset":383176,
			"target":34962
		},
		{
			"buffer":0,
			"byteLength":4164,
			"byteOffset":393196,
			"target":34963
		},
		{
			"buffer":0,
			"byteLength":9852,
			"byteOffset":397360,
			"target":34962
		},
		{
			"buffer":0,
			"byteLength":6568,
			"byteOffset":407212,
			"target":34962
		},
		{
			"buffer":0,
			"byteLength":9852,
			"byteOffset":413780,
			"target":34962
		},
		{
			"buffer":0,
			"byteLength":4164,
			"byteOffset":423632,
			"target":34963
		},
		{
			"buffer":0,
			"byteLength":7680,
			"byteOffset":427796,
			"target":34962
		},
		{
			"buffer":0,
			"byteLength":5120,
			"byteOffset":435476,
			"target":34962
		},
		{
			"buffer":0,
			"byteLength":7680,
			"byteOffset":440596,
			"target":34962
		},
		{
			"buffer":0,
			"byteLength":1920,
			"byteOffset":448276,
			"target":34963
		},
		{
			"buffer":0,
			"byteLength":21696,
			"byteOffset":450196,
			"target":34962
		},
		{
			"buffer":0,
			"byteLength":14464,
			"byteOffset":471892,
			"target":34962
		},
		{
			"buffer":0,
			"byteLength":21696,
			"byteOffset":486356,
			"target":34962
		},
		{
			"buffer":0,
			"byteLength":17268,
			"byteOffset":508052,
			"target":34963
		},
		{
			"buffer":0,
			"byteLength":21168,
			"byteOffset":525320,
			"target":34962
		},
		{
			"buffer":0,
			"byteLength":14112,
			"byteOffset":546488,
			"target":34962
		},
		{
			"buffer":0,
			"byteLength":21168,
			"byteOffset":560600,
			"target":34962
		},
		{
			"buffer":0,
			"byteLength":15528,
			"byteOffset":581768,
			"target":34963
		},
		{
			"buffer":0,
			"byteLength":120420,
			"byteOffset":597296,
			"target":34962
		},
		{
			"buffer":0,
			"byteLength":80280,
			"byteOffset":717716,
			"target":34962
		},
		{
			"buffer":0,
			"byteLength":120420,
			"byteOffset":797996,
			"target":34962
		},
		{
			"buffer":0,
			"byteLength":109860,
			"byteOffset":918416,
			"target":34963
		},
		{
			"buffer":0,
			"byteLength":62280,
			"byteOffset":1028276,
			"target":34962
		},
		{
			"buffer":0,
			"byteLength":41520,
			"byteOffset":1090556,
			"target":34962
		},
		{
			"buffer":0,
			"byteLength":41520,
			"byteOffset":1132076,
			"target":34962
		},
		{
			"buffer":0,
			"byteLength":41520,
			"byteOffset":1173596,
			"target":34962
		},
		{
			"buffer":0,
			"byteLength":62280,
			"byteOffset":1215116,
			"target":34962
		},
		{
			"buffer":0,
			"byteLength":47568,
			"byteOffset":1277396,
			"target":34963
		},
		{
			"buffer":0,
			"byteLength":10872,
			"byteOffset":1324964,
			"target":34962
		},
		{
			"buffer":0,
			"byteLength":7248,
			"byteOffset":1335836,
			"target":34962
		},
		{
			"buffer":0,
			"byteLength":7248,
			"byteOffset":1343084,
			"target":34962
		},
		{
			"buffer":0,
			"byteLength":7248,
			"byteOffset":1350332,
			"target":34962
		},
		{
			"buffer":0,
			"byteLength":10872,
			"byteOffset":1357580,
			"target":34962
		},
		{
			"buffer":0,
			"byteLength":4272,
			"byteOffset":1368452,
			"target":34963
		},
		{
			"buffer":0,
			"byteLength":67236,
			"byteOffset":1372724,
			"target":34962
		},
		{
			"buffer":0,
			"byteLength":44824,
			"byteOffset":1439960,
			"target":34962
		},
		{
			"buffer":0,
			"byteLength":67236,
			"byteOffset":1484784,
			"target":34962
		},
		{
			"buffer":0,
			"byteLength":49344,
			"byteOffset":1552020,
			"target":34963
		},
		{
			"buffer":0,
			"byteLength":3984,
			"byteOffset":1601364,
			"target":34962
		},
		{
			"buffer":0,
			"byteLength":2656,
			"byteOffset":1605348,
			"target":34962
		},
		{
			"buffer":0,
			"byteLength":3984,
			"byteOffset":1608004,
			"target":34962
		},
		{
			"buffer":0,
			"byteLength":3600,
			"byteOffset":1611988,
			"target":34963
		},
		{
			"buffer":0,
			"byteLength":3444,
			"byteOffset":1615588,
			"target":34962
		},
		{
			"buffer":0,
			"byteLength":2296,
			"byteOffset":1619032,
			"target":34962
		},
		{
			"buffer":0,
			"byteLength":3444,
			"byteOffset":1621328,
			"target":34962
		},
		{
			"buffer":0,
			"byteLength":1944,
			"byteOffset":1624772,
			"target":34963
		},
		{
			"buffer":0,
			"byteLength":3984,
			"byteOffset":1626716,
			"target":34962
		},
		{
			"buffer":0,
			"byteLength":2656,
			"byteOffset":1630700,
			"target":34962
		},
		{
			"buffer":0,
			"byteLength":3984,
			"byteOffset":1633356,
			"target":34962
		},
		{
			"buffer":0,
			"byteLength":3444,
			"byteOffset":1637340,
			"target":34962
		},
		{
			"buffer":0,
			"byteLength":2296,
			"byteOffset":1640784,
			"target":34962
		},
		{
			"buffer":0,
			"byteLength":3444,
			"byteOffset":1643080,
			"target":34962
		},
		{
			"buffer":0,
			"byteLength":8604,
			"byteOffset":1646524,
			"target":34962
		},
		{
			"buffer":0,
			"byteLength":5736,
			"byteOffset":1655128,
			"target":34962
		},
		{
			"buffer":0,
			"byteLength":8604,
			"byteOffset":1660864,
			"target":34962
		},
		{
			"buffer":0,
			"byteLength":3420,
			"byteOffset":1669468,
			"target":34963
		},
		{
			"buffer":0,
			"byteLength":216,
			"byteOffset":1672888,
			"target":34962
		},
		{
			"buffer":0,
			"byteLength":144,
			"byteOffset":1673104,
			"target":34962
		},
		{
			"buffer":0,
			"byteLength":216,
			"byteOffset":1673248,
			"target":34962
		},
		{
			"buffer":0,
			"byteLength":96,
			"byteOffset":1673464,
			"target":34963
		},
		{
			"buffer":0,
			"byteLength":8604,
			"byteOffset":1673560,
			"target":34962
		},
		{
			"buffer":0,
			"byteLength":5736,
			"byteOffset":1682164,
			"target":34962
		},
		{
			"buffer":0,
			"byteLength":8604,
			"byteOffset":1687900,
			"target":34962
		},
		{
			"buffer":0,
			"byteLength":216,
			"byteOffset":1696504,
			"target":34962
		},
		{
			"buffer":0,
			"byteLength":144,
			"byteOffset":1696720,
			"target":34962
		},
		{
			"buffer":0,
			"byteLength":216,
			"byteOffset":1696864,
			"target":34962
		}
	],
	"samplers":[
		{
			"magFilter":9729,
			"minFilter":9987
		}
	],
	"buffers":[
		{
			"byteLength":1697080,
			"uri":"medieval.bin"
		}
	]
}
