{
	"asset":{
		"generator":"Khronos glTF Blender I/O v4.3.47",
		"version":"2.0"
	},
	"scene":0,
	"scenes":[
		{
			"name":"Scene",
			"nodes":[
				7,
				12
			]
		}
	],
	"nodes":[
		{
			"mesh":0,
			"name":"SM_Coffe_Table_02_LP_M_Grid_0"
		},
		{
			"mesh":1,
			"name":"SM_Coffe_Table_02_LP_M_Side_Table_0"
		},
		{
			"mesh":2,
			"name":"SM_Coffe_Table_02_LP_M_Slider_0"
		},
		{
			"mesh":3,
			"name":"SM_Coffe_Table_02_LP_M_Vienna_Straw_0"
		},
		{
			"children":[
				0,
				1,
				2,
				3
			],
			"name":"SM_Coffe_Table_02_LP",
			"rotation":[
				-0.70710688829422,
				0,
				0,
				0.7071066498756409
			],
			"scale":[
				56.808197021484375,
				56.80819320678711,
				109.80783081054688
			]
		},
		{
			"children":[
				4
			],
			"name":"RootNode"
		},
		{
			"children":[
				5
			],
			"name":"3366a78cde444590a1e722cb888e192d.fbx",
			"rotation":[
				0.70710688829422,
				0,
				0,
				0.7071066498756409
			],
			"scale":[
				0.009999999776482582,
				0.009999999776482582,
				0.009999999776482582
			]
		},
		{
			"children":[
				6
			],
			"name":"Sketchfab_model",
			"rotation":[
				-0.70710688829422,
				0,
				0,
				0.7071066498756409
			],
			"scale":[
				1.4285714626312256,
				1.4285715818405151,
				1.4285715818405151
			]
		},
		{
			"mesh":4,
			"name":"Television_01_Television_01_0"
		},
		{
			"children":[
				8
			],
			"name":"Television_01",
			"rotation":[
				-0.70710688829422,
				0,
				0,
				0.7071066498756409
			],
			"scale":[
				100,
				99.99999237060547,
				99.99999237060547
			],
			"translation":[
				0,
				-7.62939453125e-06,
				0
			]
		},
		{
			"children":[
				9
			],
			"name":"RootNode.001",
			"translation":[
				0,
				-7.62939453125e-06,
				0
			]
		},
		{
			"children":[
				10
			],
			"name":"045a3c797a74410a8a2ace7c13e1d6cb.fbx",
			"rotation":[
				0.70710688829422,
				0,
				0,
				0.7071066498756409
			],
			"scale":[
				0.009999999776482582,
				0.010000000707805157,
				0.010000000707805157
			]
		},
		{
			"children":[
				11
			],
			"name":"Sketchfab_model.001",
			"rotation":[
				-0.70710688829422,
				0,
				0,
				0.7071066498756409
			],
			"translation":[
				0,
				0.6476826667785645,
				0.17085722088813782
			]
		}
	],
	"materials":[
		{
			"alphaCutoff":0.5550057888031006,
			"alphaMode":"MASK",
			"doubleSided":true,
			"name":"M_Grid",
			"pbrMetallicRoughness":{
				"baseColorTexture":{
					"index":0
				},
				"metallicFactor":0,
				"roughnessFactor":0.9989943504333496
			}
		},
		{
			"doubleSided":true,
			"name":"M_Side_Table",
			"normalTexture":{
				"index":1,
				"scale":0.792132556438446
			},
			"pbrMetallicRoughness":{
				"baseColorTexture":{
					"index":2
				},
				"metallicFactor":0,
				"metallicRoughnessTexture":{
					"index":3
				}
			}
		},
		{
			"doubleSided":true,
			"name":"M_Slider",
			"pbrMetallicRoughness":{
				"baseColorFactor":[
					0.025351300835609436,
					0.025351300835609436,
					0.025351300835609436,
					1
				],
				"metallicFactor":0,
				"roughnessFactor":0.9956218600273132
			}
		},
		{
			"alphaCutoff":0.6644489169120789,
			"alphaMode":"MASK",
			"doubleSided":true,
			"name":"M_Vienna_Straw",
			"pbrMetallicRoughness":{
				"baseColorFactor":[
					0.5428454875946045,
					0.5428454875946045,
					0.5428454875946045,
					1
				],
				"baseColorTexture":{
					"index":4
				},
				"metallicFactor":0,
				"roughnessFactor":0.853797197341919
			}
		},
		{
			"doubleSided":true,
			"name":"Television_01",
			"normalTexture":{
				"index":5
			},
			"pbrMetallicRoughness":{
				"baseColorTexture":{
					"index":6
				},
				"metallicRoughnessTexture":{
					"index":7
				}
			}
		}
	],
	"meshes":[
		{
			"name":"SM_Coffe_Table_02_LP_M_Grid_0",
			"primitives":[
				{
					"attributes":{
						"POSITION":0,
						"NORMAL":1,
						"TEXCOORD_0":2
					},
					"indices":3,
					"material":0
				}
			]
		},
		{
			"name":"SM_Coffe_Table_02_LP_M_Side_Table_0",
			"primitives":[
				{
					"attributes":{
						"POSITION":4,
						"NORMAL":5,
						"TEXCOORD_0":6,
						"TEXCOORD_1":7,
						"TEXCOORD_2":8
					},
					"indices":9,
					"material":1
				}
			]
		},
		{
			"name":"SM_Coffe_Table_02_LP_M_Slider_0",
			"primitives":[
				{
					"attributes":{
						"POSITION":10,
						"NORMAL":11,
						"TEXCOORD_0":12
					},
					"indices":13,
					"material":2
				}
			]
		},
		{
			"name":"SM_Coffe_Table_02_LP_M_Vienna_Straw_0",
			"primitives":[
				{
					"attributes":{
						"POSITION":14,
						"NORMAL":15,
						"TEXCOORD_0":16
					},
					"indices":17,
					"material":3
				}
			]
		},
		{
			"name":"Television_01_Television_01_0",
			"primitives":[
				{
					"attributes":{
						"POSITION":18,
						"NORMAL":19,
						"TEXCOORD_0":20,
						"TEXCOORD_1":21,
						"TEXCOORD_2":22
					},
					"indices":23,
					"material":4
				}
			]
		}
	],
	"textures":[
		{
			"sampler":0,
			"source":0
		},
		{
			"sampler":0,
			"source":1
		},
		{
			"sampler":0,
			"source":2
		},
		{
			"sampler":0,
			"source":3
		},
		{
			"sampler":0,
			"source":4
		},
		{
			"sampler":0,
			"source":5
		},
		{
			"sampler":0,
			"source":6
		},
		{
			"sampler":0,
			"source":7
		}
	],
	"images":[
		{
			"mimeType":"image/png",
			"name":"M_Grid_baseColor",
			"uri":"M_Grid_baseColor.png"
		},
		{
			"mimeType":"image/png",
			"name":"M_Side_Table_normal",
			"uri":"M_Side_Table_normal.png"
		},
		{
			"mimeType":"image/png",
			"name":"M_Side_Table_baseColor",
			"uri":"M_Side_Table_baseColor.png"
		},
		{
			"mimeType":"image/png",
			"name":"M_Side_Table_metallicRoughness",
			"uri":"M_Side_Table_metallicRoughness.png"
		},
		{
			"mimeType":"image/png",
			"name":"M_Vienna_Straw_baseColor",
			"uri":"M_Vienna_Straw_baseColor.png"
		},
		{
			"mimeType":"image/png",
			"name":"Television_01_normal",
			"uri":"Television_01_normal.png"
		},
		{
			"mimeType":"image/jpeg",
			"name":"Television_01_baseColor",
			"uri":"Television_01_baseColor.jpg"
		},
		{
			"mimeType":"image/png",
			"name":"Television_01_metallicRoughness",
			"uri":"Television_01_metallicRoughness.png"
		}
	],
	"accessors":[
		{
			"bufferView":0,
			"componentType":5126,
			"count":116,
			"max":[
				1.0205485820770264,
				0.37285315990448,
				0.16476121544837952
			],
			"min":[
				-1.0225576162338257,
				-0.6257466077804565,
				0.16349472105503082
			],
			"type":"VEC3"
		},
		{
			"bufferView":1,
			"componentType":5126,
			"count":116,
			"type":"VEC3"
		},
		{
			"bufferView":2,
			"componentType":5126,
			"count":116,
			"type":"VEC2"
		},
		{
			"bufferView":3,
			"componentType":5123,
			"count":120,
			"type":"SCALAR"
		},
		{
			"bufferView":4,
			"componentType":5126,
			"count":4808,
			"max":[
				1.2323018312454224,
				0.5507526397705078,
				0.4131495952606201
			],
			"min":[
				-1.2343107461929321,
				-0.8094683289527893,
				0.0037066638469696045
			],
			"type":"VEC3"
		},
		{
			"bufferView":5,
			"componentType":5126,
			"count":4808,
			"type":"VEC3"
		},
		{
			"bufferView":6,
			"componentType":5126,
			"count":4808,
			"type":"VEC2"
		},
		{
			"bufferView":7,
			"componentType":5126,
			"count":4808,
			"type":"VEC2"
		},
		{
			"bufferView":8,
			"componentType":5126,
			"count":4808,
			"type":"VEC2"
		},
		{
			"bufferView":9,
			"componentType":5123,
			"count":15450,
			"type":"SCALAR"
		},
		{
			"bufferView":10,
			"componentType":5126,
			"count":864,
			"max":[
				1.1246005296707153,
				0.5067800283432007,
				0.0037066638469696045
			],
			"min":[
				-1.1245955228805542,
				-0.5067756175994873,
				0
			],
			"type":"VEC3"
		},
		{
			"bufferView":11,
			"componentType":5126,
			"count":864,
			"type":"VEC3"
		},
		{
			"bufferView":12,
			"componentType":5126,
			"count":864,
			"type":"VEC2"
		},
		{
			"bufferView":13,
			"componentType":5123,
			"count":2574,
			"type":"SCALAR"
		},
		{
			"bufferView":14,
			"componentType":5126,
			"count":116,
			"max":[
				1.0205485820770264,
				0.37285315990448,
				0.16543881595134735
			],
			"min":[
				-1.0225576162338257,
				-0.6257466077804565,
				0.16417232155799866
			],
			"type":"VEC3"
		},
		{
			"bufferView":15,
			"componentType":5126,
			"count":116,
			"type":"VEC3"
		},
		{
			"bufferView":16,
			"componentType":5126,
			"count":116,
			"type":"VEC2"
		},
		{
			"bufferView":17,
			"componentType":5123,
			"count":120,
			"type":"SCALAR"
		},
		{
			"bufferView":18,
			"componentType":5126,
			"count":2007,
			"max":[
				0.29999998211860657,
				0.25836652517318726,
				0.4568334221839905
			],
			"min":[
				-0.29999998211860657,
				-0.21244415640830994,
				-1.5506739146076143e-05
			],
			"type":"VEC3"
		},
		{
			"bufferView":19,
			"componentType":5126,
			"count":2007,
			"type":"VEC3"
		},
		{
			"bufferView":20,
			"componentType":5126,
			"count":2007,
			"type":"VEC2"
		},
		{
			"bufferView":21,
			"componentType":5126,
			"count":2007,
			"type":"VEC2"
		},
		{
			"bufferView":22,
			"componentType":5126,
			"count":2007,
			"type":"VEC2"
		},
		{
			"bufferView":23,
			"componentType":5123,
			"count":5754,
			"type":"SCALAR"
		}
	],
	"bufferViews":[
		{
			"buffer":0,
			"byteLength":1392,
			"byteOffset":0,
			"target":34962
		},
		{
			"buffer":0,
			"byteLength":1392,
			"byteOffset":1392,
			"target":34962
		},
		{
			"buffer":0,
			"byteLength":928,
			"byteOffset":2784,
			"target":34962
		},
		{
			"buffer":0,
			"byteLength":240,
			"byteOffset":3712,
			"target":34963
		},
		{
			"buffer":0,
			"byteLength":57696,
			"byteOffset":3952,
			"target":34962
		},
		{
			"buffer":0,
			"byteLength":57696,
			"byteOffset":61648,
			"target":34962
		},
		{
			"buffer":0,
			"byteLength":38464,
			"byteOffset":119344,
			"target":34962
		},
		{
			"buffer":0,
			"byteLength":38464,
			"byteOffset":157808,
			"target":34962
		},
		{
			"buffer":0,
			"byteLength":38464,
			"byteOffset":196272,
			"target":34962
		},
		{
			"buffer":0,
			"byteLength":30900,
			"byteOffset":234736,
			"target":34963
		},
		{
			"buffer":0,
			"byteLength":10368,
			"byteOffset":265636,
			"target":34962
		},
		{
			"buffer":0,
			"byteLength":10368,
			"byteOffset":276004,
			"target":34962
		},
		{
			"buffer":0,
			"byteLength":6912,
			"byteOffset":286372,
			"target":34962
		},
		{
			"buffer":0,
			"byteLength":5148,
			"byteOffset":293284,
			"target":34963
		},
		{
			"buffer":0,
			"byteLength":1392,
			"byteOffset":298432,
			"target":34962
		},
		{
			"buffer":0,
			"byteLength":1392,
			"byteOffset":299824,
			"target":34962
		},
		{
			"buffer":0,
			"byteLength":928,
			"byteOffset":301216,
			"target":34962
		},
		{
			"buffer":0,
			"byteLength":240,
			"byteOffset":302144,
			"target":34963
		},
		{
			"buffer":0,
			"byteLength":24084,
			"byteOffset":302384,
			"target":34962
		},
		{
			"buffer":0,
			"byteLength":24084,
			"byteOffset":326468,
			"target":34962
		},
		{
			"buffer":0,
			"byteLength":16056,
			"byteOffset":350552,
			"target":34962
		},
		{
			"buffer":0,
			"byteLength":16056,
			"byteOffset":366608,
			"target":34962
		},
		{
			"buffer":0,
			"byteLength":16056,
			"byteOffset":382664,
			"target":34962
		},
		{
			"buffer":0,
			"byteLength":11508,
			"byteOffset":398720,
			"target":34963
		}
	],
	"samplers":[
		{
			"magFilter":9729,
			"minFilter":9987
		}
	],
	"buffers":[
		{
			"byteLength":410228,
			"uri":"scene.bin"
		}
	]
}
